<?xml version="1.0" encoding="utf-8" standalone="no"?>
<!DOCTYPE svg PUBLIC "-//W3C//DTD SVG 1.1//EN"
  "http://www.w3.org/Graphics/SVG/1.1/DTD/svg11.dtd">
<!-- Created with matplotlib (https://matplotlib.org/) -->
<svg height="428.77625pt" version="1.1" viewBox="0 0 609.303125 428.77625" width="609.303125pt" xmlns="http://www.w3.org/2000/svg" xmlns:xlink="http://www.w3.org/1999/xlink">
 <defs>
  <style type="text/css">
*{stroke-linecap:butt;stroke-linejoin:round;}
  </style>
 </defs>
 <g id="figure_1">
  <g id="patch_1">
   <path d="M 0 428.77625 
L 609.303125 428.77625 
L 609.303125 0 
L 0 0 
z
" style="fill:#ffffff;"/>
  </g>
  <g id="axes_1">
   <g id="patch_2">
    <path d="M 40.603125 391.22 
L 598.603125 391.22 
L 598.603125 10.7 
L 40.603125 10.7 
z
" style="fill:#ffffff;"/>
   </g>
   <g id="PathCollection_1">
    <defs>
     <path d="M 0 3 
C 0.795609 3 1.55874 2.683901 2.12132 2.12132 
C 2.683901 1.55874 3 0.795609 3 0 
C 3 -0.795609 2.683901 -1.55874 2.12132 -2.12132 
C 1.55874 -2.683901 0.795609 -3 0 -3 
C -0.795609 -3 -1.55874 -2.683901 -2.12132 -2.12132 
C -2.683901 -1.55874 -3 -0.795609 -3 0 
C -3 0.795609 -2.683901 1.55874 -2.12132 2.12132 
C -1.55874 2.683901 -0.795609 3 0 3 
z
" id="mbdcdb63801" style="stroke:#1f77b4;"/>
    </defs>
    <g clip-path="url(#pc9452a4314)">
     <use style="fill:#1f77b4;stroke:#1f77b4;" x="68.933288" xlink:href="#mbdcdb63801" y="150.377941"/>
     <use style="fill:#1f77b4;stroke:#1f77b4;" x="75.279359" xlink:href="#mbdcdb63801" y="286.989321"/>
     <use style="fill:#1f77b4;stroke:#1f77b4;" x="81.625431" xlink:href="#mbdcdb63801" y="314.685172"/>
     <use style="fill:#1f77b4;stroke:#1f77b4;" x="87.971503" xlink:href="#mbdcdb63801" y="354.517182"/>
     <use style="fill:#1f77b4;stroke:#1f77b4;" x="94.317575" xlink:href="#mbdcdb63801" y="343.776877"/>
     <use style="fill:#1f77b4;stroke:#1f77b4;" x="100.663647" xlink:href="#mbdcdb63801" y="354.821361"/>
     <use style="fill:#1f77b4;stroke:#1f77b4;" x="107.009719" xlink:href="#mbdcdb63801" y="356.908955"/>
     <use style="fill:#1f77b4;stroke:#1f77b4;" x="113.35579" xlink:href="#mbdcdb63801" y="370.906338"/>
     <use style="fill:#1f77b4;stroke:#1f77b4;" x="119.701862" xlink:href="#mbdcdb63801" y="363.438711"/>
     <use style="fill:#1f77b4;stroke:#1f77b4;" x="126.047934" xlink:href="#mbdcdb63801" y="367.402233"/>
     <use style="fill:#1f77b4;stroke:#1f77b4;" x="132.394006" xlink:href="#mbdcdb63801" y="367.979924"/>
     <use style="fill:#1f77b4;stroke:#1f77b4;" x="138.740078" xlink:href="#mbdcdb63801" y="372.007153"/>
     <use style="fill:#1f77b4;stroke:#1f77b4;" x="145.08615" xlink:href="#mbdcdb63801" y="370.578397"/>
     <use style="fill:#1f77b4;stroke:#1f77b4;" x="151.432221" xlink:href="#mbdcdb63801" y="372.45168"/>
     <use style="fill:#1f77b4;stroke:#1f77b4;" x="157.778293" xlink:href="#mbdcdb63801" y="372.781862"/>
     <use style="fill:#1f77b4;stroke:#1f77b4;" x="164.124365" xlink:href="#mbdcdb63801" y="369.927107"/>
     <use style="fill:#1f77b4;stroke:#1f77b4;" x="170.470437" xlink:href="#mbdcdb63801" y="373.892666"/>
     <use style="fill:#1f77b4;stroke:#1f77b4;" x="176.816509" xlink:href="#mbdcdb63801" y="372.888889"/>
     <use style="fill:#1f77b4;stroke:#1f77b4;" x="183.162581" xlink:href="#mbdcdb63801" y="372.645204"/>
     <use style="fill:#1f77b4;stroke:#1f77b4;" x="189.508652" xlink:href="#mbdcdb63801" y="368.935855"/>
     <use style="fill:#1f77b4;stroke:#1f77b4;" x="195.854724" xlink:href="#mbdcdb63801" y="372.150235"/>
     <use style="fill:#1f77b4;stroke:#1f77b4;" x="202.200796" xlink:href="#mbdcdb63801" y="371.263353"/>
     <use style="fill:#1f77b4;stroke:#1f77b4;" x="208.546868" xlink:href="#mbdcdb63801" y="368.748775"/>
     <use style="fill:#1f77b4;stroke:#1f77b4;" x="214.89294" xlink:href="#mbdcdb63801" y="368.571212"/>
     <use style="fill:#1f77b4;stroke:#1f77b4;" x="221.239012" xlink:href="#mbdcdb63801" y="368.774587"/>
     <use style="fill:#1f77b4;stroke:#1f77b4;" x="227.585083" xlink:href="#mbdcdb63801" y="370.591545"/>
     <use style="fill:#1f77b4;stroke:#1f77b4;" x="233.931155" xlink:href="#mbdcdb63801" y="368.630005"/>
     <use style="fill:#1f77b4;stroke:#1f77b4;" x="240.277227" xlink:href="#mbdcdb63801" y="368.466547"/>
     <use style="fill:#1f77b4;stroke:#1f77b4;" x="246.623299" xlink:href="#mbdcdb63801" y="368.701765"/>
     <use style="fill:#1f77b4;stroke:#1f77b4;" x="252.969371" xlink:href="#mbdcdb63801" y="366.726865"/>
     <use style="fill:#1f77b4;stroke:#1f77b4;" x="259.315443" xlink:href="#mbdcdb63801" y="368.739433"/>
     <use style="fill:#1f77b4;stroke:#1f77b4;" x="265.661514" xlink:href="#mbdcdb63801" y="368.466887"/>
     <use style="fill:#1f77b4;stroke:#1f77b4;" x="272.007586" xlink:href="#mbdcdb63801" y="368.730074"/>
     <use style="fill:#1f77b4;stroke:#1f77b4;" x="278.353658" xlink:href="#mbdcdb63801" y="367.275305"/>
     <use style="fill:#1f77b4;stroke:#1f77b4;" x="284.69973" xlink:href="#mbdcdb63801" y="368.73801"/>
     <use style="fill:#1f77b4;stroke:#1f77b4;" x="291.045802" xlink:href="#mbdcdb63801" y="366.374343"/>
     <use style="fill:#1f77b4;stroke:#1f77b4;" x="297.391874" xlink:href="#mbdcdb63801" y="366.687351"/>
     <use style="fill:#1f77b4;stroke:#1f77b4;" x="303.737945" xlink:href="#mbdcdb63801" y="366.237536"/>
     <use style="fill:#1f77b4;stroke:#1f77b4;" x="310.084017" xlink:href="#mbdcdb63801" y="366.762249"/>
     <use style="fill:#1f77b4;stroke:#1f77b4;" x="316.430089" xlink:href="#mbdcdb63801" y="366.611289"/>
     <use style="fill:#1f77b4;stroke:#1f77b4;" x="322.776161" xlink:href="#mbdcdb63801" y="366.907245"/>
     <use style="fill:#1f77b4;stroke:#1f77b4;" x="329.122233" xlink:href="#mbdcdb63801" y="366.834017"/>
     <use style="fill:#1f77b4;stroke:#1f77b4;" x="335.468305" xlink:href="#mbdcdb63801" y="367.064722"/>
     <use style="fill:#1f77b4;stroke:#1f77b4;" x="341.814376" xlink:href="#mbdcdb63801" y="366.880927"/>
     <use style="fill:#1f77b4;stroke:#1f77b4;" x="348.160448" xlink:href="#mbdcdb63801" y="367.288964"/>
     <use style="fill:#1f77b4;stroke:#1f77b4;" x="354.50652" xlink:href="#mbdcdb63801" y="367.328917"/>
     <use style="fill:#1f77b4;stroke:#1f77b4;" x="360.852592" xlink:href="#mbdcdb63801" y="367.471312"/>
     <use style="fill:#1f77b4;stroke:#1f77b4;" x="367.198664" xlink:href="#mbdcdb63801" y="367.235432"/>
     <use style="fill:#1f77b4;stroke:#1f77b4;" x="373.544736" xlink:href="#mbdcdb63801" y="367.746915"/>
     <use style="fill:#1f77b4;stroke:#1f77b4;" x="379.890807" xlink:href="#mbdcdb63801" y="367.949505"/>
     <use style="fill:#1f77b4;stroke:#1f77b4;" x="386.236879" xlink:href="#mbdcdb63801" y="367.798705"/>
     <use style="fill:#1f77b4;stroke:#1f77b4;" x="392.582951" xlink:href="#mbdcdb63801" y="367.51889"/>
     <use style="fill:#1f77b4;stroke:#1f77b4;" x="398.929023" xlink:href="#mbdcdb63801" y="367.978392"/>
     <use style="fill:#1f77b4;stroke:#1f77b4;" x="405.275095" xlink:href="#mbdcdb63801" y="368.210687"/>
     <use style="fill:#1f77b4;stroke:#1f77b4;" x="411.621167" xlink:href="#mbdcdb63801" y="367.822455"/>
     <use style="fill:#1f77b4;stroke:#1f77b4;" x="417.967238" xlink:href="#mbdcdb63801" y="367.775431"/>
     <use style="fill:#1f77b4;stroke:#1f77b4;" x="424.31331" xlink:href="#mbdcdb63801" y="368.01128"/>
     <use style="fill:#1f77b4;stroke:#1f77b4;" x="430.659382" xlink:href="#mbdcdb63801" y="368.420412"/>
     <use style="fill:#1f77b4;stroke:#1f77b4;" x="437.005454" xlink:href="#mbdcdb63801" y="368.04917"/>
     <use style="fill:#1f77b4;stroke:#1f77b4;" x="443.351526" xlink:href="#mbdcdb63801" y="367.980449"/>
     <use style="fill:#1f77b4;stroke:#1f77b4;" x="449.697598" xlink:href="#mbdcdb63801" y="368.210436"/>
     <use style="fill:#1f77b4;stroke:#1f77b4;" x="456.043669" xlink:href="#mbdcdb63801" y="367.832917"/>
     <use style="fill:#1f77b4;stroke:#1f77b4;" x="462.389741" xlink:href="#mbdcdb63801" y="367.549399"/>
     <use style="fill:#1f77b4;stroke:#1f77b4;" x="468.735813" xlink:href="#mbdcdb63801" y="367.455792"/>
     <use style="fill:#1f77b4;stroke:#1f77b4;" x="475.081885" xlink:href="#mbdcdb63801" y="367.643006"/>
     <use style="fill:#1f77b4;stroke:#1f77b4;" x="481.427957" xlink:href="#mbdcdb63801" y="367.954858"/>
     <use style="fill:#1f77b4;stroke:#1f77b4;" x="487.774029" xlink:href="#mbdcdb63801" y="367.632289"/>
     <use style="fill:#1f77b4;stroke:#1f77b4;" x="494.1201" xlink:href="#mbdcdb63801" y="367.539411"/>
     <use style="fill:#1f77b4;stroke:#1f77b4;" x="500.466172" xlink:href="#mbdcdb63801" y="367.772851"/>
     <use style="fill:#1f77b4;stroke:#1f77b4;" x="506.812244" xlink:href="#mbdcdb63801" y="368.086183"/>
     <use style="fill:#1f77b4;stroke:#1f77b4;" x="513.158316" xlink:href="#mbdcdb63801" y="367.797216"/>
     <use style="fill:#1f77b4;stroke:#1f77b4;" x="519.504388" xlink:href="#mbdcdb63801" y="367.744141"/>
     <use style="fill:#1f77b4;stroke:#1f77b4;" x="525.85046" xlink:href="#mbdcdb63801" y="367.923069"/>
     <use style="fill:#1f77b4;stroke:#1f77b4;" x="532.196531" xlink:href="#mbdcdb63801" y="368.18374"/>
     <use style="fill:#1f77b4;stroke:#1f77b4;" x="538.542603" xlink:href="#mbdcdb63801" y="367.948691"/>
     <use style="fill:#1f77b4;stroke:#1f77b4;" x="544.888675" xlink:href="#mbdcdb63801" y="367.880935"/>
     <use style="fill:#1f77b4;stroke:#1f77b4;" x="551.234747" xlink:href="#mbdcdb63801" y="368.029205"/>
     <use style="fill:#1f77b4;stroke:#1f77b4;" x="557.580819" xlink:href="#mbdcdb63801" y="368.243533"/>
     <use style="fill:#1f77b4;stroke:#1f77b4;" x="563.926891" xlink:href="#mbdcdb63801" y="368.026497"/>
     <use style="fill:#1f77b4;stroke:#1f77b4;" x="570.272962" xlink:href="#mbdcdb63801" y="367.982174"/>
    </g>
   </g>
   <g id="PathCollection_2">
    <defs>
     <path d="M 0 3 
C 0.795609 3 1.55874 2.683901 2.12132 2.12132 
C 2.683901 1.55874 3 0.795609 3 0 
C 3 -0.795609 2.683901 -1.55874 2.12132 -2.12132 
C 1.55874 -2.683901 0.795609 -3 0 -3 
C -0.795609 -3 -1.55874 -2.683901 -2.12132 -2.12132 
C -2.683901 -1.55874 -3 -0.795609 -3 0 
C -3 0.795609 -2.683901 1.55874 -2.12132 2.12132 
C -1.55874 2.683901 -0.795609 3 0 3 
z
" id="m703841e484" style="stroke:#ff7f0e;"/>
    </defs>
    <g clip-path="url(#pc9452a4314)">
     <use style="fill:#ff7f0e;stroke:#ff7f0e;" x="68.933288" xlink:href="#m703841e484" y="29.935297"/>
     <use style="fill:#ff7f0e;stroke:#ff7f0e;" x="75.279359" xlink:href="#m703841e484" y="154.136388"/>
     <use style="fill:#ff7f0e;stroke:#ff7f0e;" x="81.625431" xlink:href="#m703841e484" y="237.472538"/>
     <use style="fill:#ff7f0e;stroke:#ff7f0e;" x="87.971503" xlink:href="#m703841e484" y="278.046236"/>
     <use style="fill:#ff7f0e;stroke:#ff7f0e;" x="94.317575" xlink:href="#m703841e484" y="300.985696"/>
     <use style="fill:#ff7f0e;stroke:#ff7f0e;" x="100.663647" xlink:href="#m703841e484" y="313.249269"/>
     <use style="fill:#ff7f0e;stroke:#ff7f0e;" x="107.009719" xlink:href="#m703841e484" y="325.469912"/>
     <use style="fill:#ff7f0e;stroke:#ff7f0e;" x="113.35579" xlink:href="#m703841e484" y="333.854716"/>
     <use style="fill:#ff7f0e;stroke:#ff7f0e;" x="119.701862" xlink:href="#m703841e484" y="339.460172"/>
     <use style="fill:#ff7f0e;stroke:#ff7f0e;" x="126.047934" xlink:href="#m703841e484" y="342.916382"/>
     <use style="fill:#ff7f0e;stroke:#ff7f0e;" x="132.394006" xlink:href="#m703841e484" y="346.818898"/>
     <use style="fill:#ff7f0e;stroke:#ff7f0e;" x="138.740078" xlink:href="#m703841e484" y="350.18825"/>
     <use style="fill:#ff7f0e;stroke:#ff7f0e;" x="145.08615" xlink:href="#m703841e484" y="352.368495"/>
     <use style="fill:#ff7f0e;stroke:#ff7f0e;" x="151.432221" xlink:href="#m703841e484" y="353.642798"/>
     <use style="fill:#ff7f0e;stroke:#ff7f0e;" x="157.778293" xlink:href="#m703841e484" y="355.523511"/>
     <use style="fill:#ff7f0e;stroke:#ff7f0e;" x="164.124365" xlink:href="#m703841e484" y="357.233865"/>
     <use style="fill:#ff7f0e;stroke:#ff7f0e;" x="170.470437" xlink:href="#m703841e484" y="358.347622"/>
     <use style="fill:#ff7f0e;stroke:#ff7f0e;" x="176.816509" xlink:href="#m703841e484" y="358.927797"/>
     <use style="fill:#ff7f0e;stroke:#ff7f0e;" x="183.162581" xlink:href="#m703841e484" y="359.966901"/>
     <use style="fill:#ff7f0e;stroke:#ff7f0e;" x="189.508652" xlink:href="#m703841e484" y="361.054952"/>
     <use style="fill:#ff7f0e;stroke:#ff7f0e;" x="195.854724" xlink:href="#m703841e484" y="361.660836"/>
     <use style="fill:#ff7f0e;stroke:#ff7f0e;" x="202.200796" xlink:href="#m703841e484" y="362.065382"/>
     <use style="fill:#ff7f0e;stroke:#ff7f0e;" x="208.546868" xlink:href="#m703841e484" y="362.798198"/>
     <use style="fill:#ff7f0e;stroke:#ff7f0e;" x="214.89294" xlink:href="#m703841e484" y="363.540994"/>
     <use style="fill:#ff7f0e;stroke:#ff7f0e;" x="221.239012" xlink:href="#m703841e484" y="364.027319"/>
     <use style="fill:#ff7f0e;stroke:#ff7f0e;" x="227.585083" xlink:href="#m703841e484" y="364.169025"/>
     <use style="fill:#ff7f0e;stroke:#ff7f0e;" x="233.931155" xlink:href="#m703841e484" y="364.692488"/>
     <use style="fill:#ff7f0e;stroke:#ff7f0e;" x="240.277227" xlink:href="#m703841e484" y="365.171316"/>
     <use style="fill:#ff7f0e;stroke:#ff7f0e;" x="246.623299" xlink:href="#m703841e484" y="365.507733"/>
     <use style="fill:#ff7f0e;stroke:#ff7f0e;" x="252.969371" xlink:href="#m703841e484" y="365.804207"/>
     <use style="fill:#ff7f0e;stroke:#ff7f0e;" x="259.315443" xlink:href="#m703841e484" y="366.384094"/>
     <use style="fill:#ff7f0e;stroke:#ff7f0e;" x="265.661514" xlink:href="#m703841e484" y="366.607999"/>
     <use style="fill:#ff7f0e;stroke:#ff7f0e;" x="272.007586" xlink:href="#m703841e484" y="366.789418"/>
     <use style="fill:#ff7f0e;stroke:#ff7f0e;" x="278.353658" xlink:href="#m703841e484" y="367.096251"/>
     <use style="fill:#ff7f0e;stroke:#ff7f0e;" x="284.69973" xlink:href="#m703841e484" y="367.347785"/>
     <use style="fill:#ff7f0e;stroke:#ff7f0e;" x="291.045802" xlink:href="#m703841e484" y="367.838065"/>
     <use style="fill:#ff7f0e;stroke:#ff7f0e;" x="297.391874" xlink:href="#m703841e484" y="368.350946"/>
     <use style="fill:#ff7f0e;stroke:#ff7f0e;" x="303.737945" xlink:href="#m703841e484" y="368.264643"/>
     <use style="fill:#ff7f0e;stroke:#ff7f0e;" x="310.084017" xlink:href="#m703841e484" y="368.941361"/>
     <use style="fill:#ff7f0e;stroke:#ff7f0e;" x="316.430089" xlink:href="#m703841e484" y="369.182148"/>
     <use style="fill:#ff7f0e;stroke:#ff7f0e;" x="322.776161" xlink:href="#m703841e484" y="369.482757"/>
     <use style="fill:#ff7f0e;stroke:#ff7f0e;" x="329.122233" xlink:href="#m703841e484" y="369.276531"/>
     <use style="fill:#ff7f0e;stroke:#ff7f0e;" x="335.468305" xlink:href="#m703841e484" y="369.673721"/>
     <use style="fill:#ff7f0e;stroke:#ff7f0e;" x="341.814376" xlink:href="#m703841e484" y="369.779734"/>
     <use style="fill:#ff7f0e;stroke:#ff7f0e;" x="348.160448" xlink:href="#m703841e484" y="369.910343"/>
     <use style="fill:#ff7f0e;stroke:#ff7f0e;" x="354.50652" xlink:href="#m703841e484" y="369.699314"/>
     <use style="fill:#ff7f0e;stroke:#ff7f0e;" x="360.852592" xlink:href="#m703841e484" y="369.983813"/>
     <use style="fill:#ff7f0e;stroke:#ff7f0e;" x="367.198664" xlink:href="#m703841e484" y="370.008871"/>
     <use style="fill:#ff7f0e;stroke:#ff7f0e;" x="373.544736" xlink:href="#m703841e484" y="370.129962"/>
     <use style="fill:#ff7f0e;stroke:#ff7f0e;" x="379.890807" xlink:href="#m703841e484" y="369.97874"/>
     <use style="fill:#ff7f0e;stroke:#ff7f0e;" x="386.236879" xlink:href="#m703841e484" y="370.148236"/>
     <use style="fill:#ff7f0e;stroke:#ff7f0e;" x="392.582951" xlink:href="#m703841e484" y="370.111484"/>
     <use style="fill:#ff7f0e;stroke:#ff7f0e;" x="398.929023" xlink:href="#m703841e484" y="370.194133"/>
     <use style="fill:#ff7f0e;stroke:#ff7f0e;" x="405.275095" xlink:href="#m703841e484" y="370.06013"/>
     <use style="fill:#ff7f0e;stroke:#ff7f0e;" x="411.621167" xlink:href="#m703841e484" y="370.139113"/>
     <use style="fill:#ff7f0e;stroke:#ff7f0e;" x="417.967238" xlink:href="#m703841e484" y="370.144932"/>
     <use style="fill:#ff7f0e;stroke:#ff7f0e;" x="424.31331" xlink:href="#m703841e484" y="370.173297"/>
     <use style="fill:#ff7f0e;stroke:#ff7f0e;" x="430.659382" xlink:href="#m703841e484" y="370.076763"/>
     <use style="fill:#ff7f0e;stroke:#ff7f0e;" x="437.005454" xlink:href="#m703841e484" y="370.151823"/>
     <use style="fill:#ff7f0e;stroke:#ff7f0e;" x="443.351526" xlink:href="#m703841e484" y="370.162728"/>
     <use style="fill:#ff7f0e;stroke:#ff7f0e;" x="449.697598" xlink:href="#m703841e484" y="370.191249"/>
     <use style="fill:#ff7f0e;stroke:#ff7f0e;" x="456.043669" xlink:href="#m703841e484" y="370.16239"/>
     <use style="fill:#ff7f0e;stroke:#ff7f0e;" x="462.389741" xlink:href="#m703841e484" y="370.34838"/>
     <use style="fill:#ff7f0e;stroke:#ff7f0e;" x="468.735813" xlink:href="#m703841e484" y="370.360709"/>
     <use style="fill:#ff7f0e;stroke:#ff7f0e;" x="475.081885" xlink:href="#m703841e484" y="370.493842"/>
     <use style="fill:#ff7f0e;stroke:#ff7f0e;" x="481.427957" xlink:href="#m703841e484" y="370.459716"/>
     <use style="fill:#ff7f0e;stroke:#ff7f0e;" x="487.774029" xlink:href="#m703841e484" y="370.560787"/>
     <use style="fill:#ff7f0e;stroke:#ff7f0e;" x="494.1201" xlink:href="#m703841e484" y="370.573944"/>
     <use style="fill:#ff7f0e;stroke:#ff7f0e;" x="500.466172" xlink:href="#m703841e484" y="370.639446"/>
     <use style="fill:#ff7f0e;stroke:#ff7f0e;" x="506.812244" xlink:href="#m703841e484" y="370.559283"/>
     <use style="fill:#ff7f0e;stroke:#ff7f0e;" x="513.158316" xlink:href="#m703841e484" y="370.664179"/>
     <use style="fill:#ff7f0e;stroke:#ff7f0e;" x="519.504388" xlink:href="#m703841e484" y="370.661416"/>
     <use style="fill:#ff7f0e;stroke:#ff7f0e;" x="525.85046" xlink:href="#m703841e484" y="370.699963"/>
     <use style="fill:#ff7f0e;stroke:#ff7f0e;" x="532.196531" xlink:href="#m703841e484" y="370.65276"/>
     <use style="fill:#ff7f0e;stroke:#ff7f0e;" x="538.542603" xlink:href="#m703841e484" y="370.693092"/>
     <use style="fill:#ff7f0e;stroke:#ff7f0e;" x="544.888675" xlink:href="#m703841e484" y="370.677048"/>
     <use style="fill:#ff7f0e;stroke:#ff7f0e;" x="551.234747" xlink:href="#m703841e484" y="370.719045"/>
     <use style="fill:#ff7f0e;stroke:#ff7f0e;" x="557.580819" xlink:href="#m703841e484" y="370.670854"/>
     <use style="fill:#ff7f0e;stroke:#ff7f0e;" x="563.926891" xlink:href="#m703841e484" y="370.702585"/>
     <use style="fill:#ff7f0e;stroke:#ff7f0e;" x="570.272962" xlink:href="#m703841e484" y="370.683872"/>
    </g>
   </g>
   <g id="matplotlib.axis_1">
    <g id="xtick_1">
     <g id="line2d_1">
      <path clip-path="url(#pc9452a4314)" d="M 62.587216 391.22 
L 62.587216 10.7 
" style="fill:none;stroke:#b0b0b0;stroke-linecap:square;stroke-width:0.8;"/>
     </g>
     <g id="line2d_2">
      <defs>
       <path d="M 0 0 
L 0 3.5 
" id="m1f99535563" style="stroke:#000000;stroke-width:0.8;"/>
      </defs>
      <g>
       <use style="stroke:#000000;stroke-width:0.8;" x="62.587216" xlink:href="#m1f99535563" y="391.22"/>
      </g>
     </g>
     <g id="text_1">
      <!-- 0.0 -->
      <defs>
       <path d="M 31.78125 66.40625 
Q 24.171875 66.40625 20.328125 58.90625 
Q 16.5 51.421875 16.5 36.375 
Q 16.5 21.390625 20.328125 13.890625 
Q 24.171875 6.390625 31.78125 6.390625 
Q 39.453125 6.390625 43.28125 13.890625 
Q 47.125 21.390625 47.125 36.375 
Q 47.125 51.421875 43.28125 58.90625 
Q 39.453125 66.40625 31.78125 66.40625 
z
M 31.78125 74.21875 
Q 44.046875 74.21875 50.515625 64.515625 
Q 56.984375 54.828125 56.984375 36.375 
Q 56.984375 17.96875 50.515625 8.265625 
Q 44.046875 -1.421875 31.78125 -1.421875 
Q 19.53125 -1.421875 13.0625 8.265625 
Q 6.59375 17.96875 6.59375 36.375 
Q 6.59375 54.828125 13.0625 64.515625 
Q 19.53125 74.21875 31.78125 74.21875 
z
" id="DejaVuSans-48"/>
       <path d="M 10.6875 12.40625 
L 21 12.40625 
L 21 0 
L 10.6875 0 
z
" id="DejaVuSans-46"/>
      </defs>
      <g transform="translate(54.635653 405.818437)scale(0.1 -0.1)">
       <use xlink:href="#DejaVuSans-48"/>
       <use x="63.623047" xlink:href="#DejaVuSans-46"/>
       <use x="95.410156" xlink:href="#DejaVuSans-48"/>
      </g>
     </g>
    </g>
    <g id="xtick_2">
     <g id="line2d_3">
      <path clip-path="url(#pc9452a4314)" d="M 126.047934 391.22 
L 126.047934 10.7 
" style="fill:none;stroke:#b0b0b0;stroke-linecap:square;stroke-width:0.8;"/>
     </g>
     <g id="line2d_4">
      <g>
       <use style="stroke:#000000;stroke-width:0.8;" x="126.047934" xlink:href="#m1f99535563" y="391.22"/>
      </g>
     </g>
     <g id="text_2">
      <!-- 2.5 -->
      <defs>
       <path d="M 19.1875 8.296875 
L 53.609375 8.296875 
L 53.609375 0 
L 7.328125 0 
L 7.328125 8.296875 
Q 12.9375 14.109375 22.625 23.890625 
Q 32.328125 33.6875 34.8125 36.53125 
Q 39.546875 41.84375 41.421875 45.53125 
Q 43.3125 49.21875 43.3125 52.78125 
Q 43.3125 58.59375 39.234375 62.25 
Q 35.15625 65.921875 28.609375 65.921875 
Q 23.96875 65.921875 18.8125 64.3125 
Q 13.671875 62.703125 7.8125 59.421875 
L 7.8125 69.390625 
Q 13.765625 71.78125 18.9375 73 
Q 24.125 74.21875 28.421875 74.21875 
Q 39.75 74.21875 46.484375 68.546875 
Q 53.21875 62.890625 53.21875 53.421875 
Q 53.21875 48.921875 51.53125 44.890625 
Q 49.859375 40.875 45.40625 35.40625 
Q 44.1875 33.984375 37.640625 27.21875 
Q 31.109375 20.453125 19.1875 8.296875 
z
" id="DejaVuSans-50"/>
       <path d="M 10.796875 72.90625 
L 49.515625 72.90625 
L 49.515625 64.59375 
L 19.828125 64.59375 
L 19.828125 46.734375 
Q 21.96875 47.46875 24.109375 47.828125 
Q 26.265625 48.1875 28.421875 48.1875 
Q 40.625 48.1875 47.75 41.5 
Q 54.890625 34.8125 54.890625 23.390625 
Q 54.890625 11.625 47.5625 5.09375 
Q 40.234375 -1.421875 26.90625 -1.421875 
Q 22.3125 -1.421875 17.546875 -0.640625 
Q 12.796875 0.140625 7.71875 1.703125 
L 7.71875 11.625 
Q 12.109375 9.234375 16.796875 8.0625 
Q 21.484375 6.890625 26.703125 6.890625 
Q 35.15625 6.890625 40.078125 11.328125 
Q 45.015625 15.765625 45.015625 23.390625 
Q 45.015625 31 40.078125 35.4375 
Q 35.15625 39.890625 26.703125 39.890625 
Q 22.75 39.890625 18.8125 39.015625 
Q 14.890625 38.140625 10.796875 36.28125 
z
" id="DejaVuSans-53"/>
      </defs>
      <g transform="translate(118.096372 405.818437)scale(0.1 -0.1)">
       <use xlink:href="#DejaVuSans-50"/>
       <use x="63.623047" xlink:href="#DejaVuSans-46"/>
       <use x="95.410156" xlink:href="#DejaVuSans-53"/>
      </g>
     </g>
    </g>
    <g id="xtick_3">
     <g id="line2d_5">
      <path clip-path="url(#pc9452a4314)" d="M 189.508652 391.22 
L 189.508652 10.7 
" style="fill:none;stroke:#b0b0b0;stroke-linecap:square;stroke-width:0.8;"/>
     </g>
     <g id="line2d_6">
      <g>
       <use style="stroke:#000000;stroke-width:0.8;" x="189.508652" xlink:href="#m1f99535563" y="391.22"/>
      </g>
     </g>
     <g id="text_3">
      <!-- 5.0 -->
      <g transform="translate(181.55709 405.818437)scale(0.1 -0.1)">
       <use xlink:href="#DejaVuSans-53"/>
       <use x="63.623047" xlink:href="#DejaVuSans-46"/>
       <use x="95.410156" xlink:href="#DejaVuSans-48"/>
      </g>
     </g>
    </g>
    <g id="xtick_4">
     <g id="line2d_7">
      <path clip-path="url(#pc9452a4314)" d="M 252.969371 391.22 
L 252.969371 10.7 
" style="fill:none;stroke:#b0b0b0;stroke-linecap:square;stroke-width:0.8;"/>
     </g>
     <g id="line2d_8">
      <g>
       <use style="stroke:#000000;stroke-width:0.8;" x="252.969371" xlink:href="#m1f99535563" y="391.22"/>
      </g>
     </g>
     <g id="text_4">
      <!-- 7.5 -->
      <defs>
       <path d="M 8.203125 72.90625 
L 55.078125 72.90625 
L 55.078125 68.703125 
L 28.609375 0 
L 18.3125 0 
L 43.21875 64.59375 
L 8.203125 64.59375 
z
" id="DejaVuSans-55"/>
      </defs>
      <g transform="translate(245.017808 405.818437)scale(0.1 -0.1)">
       <use xlink:href="#DejaVuSans-55"/>
       <use x="63.623047" xlink:href="#DejaVuSans-46"/>
       <use x="95.410156" xlink:href="#DejaVuSans-53"/>
      </g>
     </g>
    </g>
    <g id="xtick_5">
     <g id="line2d_9">
      <path clip-path="url(#pc9452a4314)" d="M 316.430089 391.22 
L 316.430089 10.7 
" style="fill:none;stroke:#b0b0b0;stroke-linecap:square;stroke-width:0.8;"/>
     </g>
     <g id="line2d_10">
      <g>
       <use style="stroke:#000000;stroke-width:0.8;" x="316.430089" xlink:href="#m1f99535563" y="391.22"/>
      </g>
     </g>
     <g id="text_5">
      <!-- 10.0 -->
      <defs>
       <path d="M 12.40625 8.296875 
L 28.515625 8.296875 
L 28.515625 63.921875 
L 10.984375 60.40625 
L 10.984375 69.390625 
L 28.421875 72.90625 
L 38.28125 72.90625 
L 38.28125 8.296875 
L 54.390625 8.296875 
L 54.390625 0 
L 12.40625 0 
z
" id="DejaVuSans-49"/>
      </defs>
      <g transform="translate(305.297277 405.818437)scale(0.1 -0.1)">
       <use xlink:href="#DejaVuSans-49"/>
       <use x="63.623047" xlink:href="#DejaVuSans-48"/>
       <use x="127.246094" xlink:href="#DejaVuSans-46"/>
       <use x="159.033203" xlink:href="#DejaVuSans-48"/>
      </g>
     </g>
    </g>
    <g id="xtick_6">
     <g id="line2d_11">
      <path clip-path="url(#pc9452a4314)" d="M 379.890807 391.22 
L 379.890807 10.7 
" style="fill:none;stroke:#b0b0b0;stroke-linecap:square;stroke-width:0.8;"/>
     </g>
     <g id="line2d_12">
      <g>
       <use style="stroke:#000000;stroke-width:0.8;" x="379.890807" xlink:href="#m1f99535563" y="391.22"/>
      </g>
     </g>
     <g id="text_6">
      <!-- 12.5 -->
      <g transform="translate(368.757995 405.818437)scale(0.1 -0.1)">
       <use xlink:href="#DejaVuSans-49"/>
       <use x="63.623047" xlink:href="#DejaVuSans-50"/>
       <use x="127.246094" xlink:href="#DejaVuSans-46"/>
       <use x="159.033203" xlink:href="#DejaVuSans-53"/>
      </g>
     </g>
    </g>
    <g id="xtick_7">
     <g id="line2d_13">
      <path clip-path="url(#pc9452a4314)" d="M 443.351526 391.22 
L 443.351526 10.7 
" style="fill:none;stroke:#b0b0b0;stroke-linecap:square;stroke-width:0.8;"/>
     </g>
     <g id="line2d_14">
      <g>
       <use style="stroke:#000000;stroke-width:0.8;" x="443.351526" xlink:href="#m1f99535563" y="391.22"/>
      </g>
     </g>
     <g id="text_7">
      <!-- 15.0 -->
      <g transform="translate(432.218713 405.818437)scale(0.1 -0.1)">
       <use xlink:href="#DejaVuSans-49"/>
       <use x="63.623047" xlink:href="#DejaVuSans-53"/>
       <use x="127.246094" xlink:href="#DejaVuSans-46"/>
       <use x="159.033203" xlink:href="#DejaVuSans-48"/>
      </g>
     </g>
    </g>
    <g id="xtick_8">
     <g id="line2d_15">
      <path clip-path="url(#pc9452a4314)" d="M 506.812244 391.22 
L 506.812244 10.7 
" style="fill:none;stroke:#b0b0b0;stroke-linecap:square;stroke-width:0.8;"/>
     </g>
     <g id="line2d_16">
      <g>
       <use style="stroke:#000000;stroke-width:0.8;" x="506.812244" xlink:href="#m1f99535563" y="391.22"/>
      </g>
     </g>
     <g id="text_8">
      <!-- 17.5 -->
      <g transform="translate(495.679432 405.818437)scale(0.1 -0.1)">
       <use xlink:href="#DejaVuSans-49"/>
       <use x="63.623047" xlink:href="#DejaVuSans-55"/>
       <use x="127.246094" xlink:href="#DejaVuSans-46"/>
       <use x="159.033203" xlink:href="#DejaVuSans-53"/>
      </g>
     </g>
    </g>
    <g id="xtick_9">
     <g id="line2d_17">
      <path clip-path="url(#pc9452a4314)" d="M 570.272962 391.22 
L 570.272962 10.7 
" style="fill:none;stroke:#b0b0b0;stroke-linecap:square;stroke-width:0.8;"/>
     </g>
     <g id="line2d_18">
      <g>
       <use style="stroke:#000000;stroke-width:0.8;" x="570.272962" xlink:href="#m1f99535563" y="391.22"/>
      </g>
     </g>
     <g id="text_9">
      <!-- 20.0 -->
      <g transform="translate(559.14015 405.818437)scale(0.1 -0.1)">
       <use xlink:href="#DejaVuSans-50"/>
       <use x="63.623047" xlink:href="#DejaVuSans-48"/>
       <use x="127.246094" xlink:href="#DejaVuSans-46"/>
       <use x="159.033203" xlink:href="#DejaVuSans-48"/>
      </g>
     </g>
    </g>
    <g id="text_10">
     <!-- Time [min] -->
     <defs>
      <path d="M -0.296875 72.90625 
L 61.375 72.90625 
L 61.375 64.59375 
L 35.5 64.59375 
L 35.5 0 
L 25.59375 0 
L 25.59375 64.59375 
L -0.296875 64.59375 
z
" id="DejaVuSans-84"/>
      <path d="M 9.421875 54.6875 
L 18.40625 54.6875 
L 18.40625 0 
L 9.421875 0 
z
M 9.421875 75.984375 
L 18.40625 75.984375 
L 18.40625 64.59375 
L 9.421875 64.59375 
z
" id="DejaVuSans-105"/>
      <path d="M 52 44.1875 
Q 55.375 50.25 60.0625 53.125 
Q 64.75 56 71.09375 56 
Q 79.640625 56 84.28125 50.015625 
Q 88.921875 44.046875 88.921875 33.015625 
L 88.921875 0 
L 79.890625 0 
L 79.890625 32.71875 
Q 79.890625 40.578125 77.09375 44.375 
Q 74.3125 48.1875 68.609375 48.1875 
Q 61.625 48.1875 57.5625 43.546875 
Q 53.515625 38.921875 53.515625 30.90625 
L 53.515625 0 
L 44.484375 0 
L 44.484375 32.71875 
Q 44.484375 40.625 41.703125 44.40625 
Q 38.921875 48.1875 33.109375 48.1875 
Q 26.21875 48.1875 22.15625 43.53125 
Q 18.109375 38.875 18.109375 30.90625 
L 18.109375 0 
L 9.078125 0 
L 9.078125 54.6875 
L 18.109375 54.6875 
L 18.109375 46.1875 
Q 21.1875 51.21875 25.484375 53.609375 
Q 29.78125 56 35.6875 56 
Q 41.65625 56 45.828125 52.96875 
Q 50 49.953125 52 44.1875 
z
" id="DejaVuSans-109"/>
      <path d="M 56.203125 29.59375 
L 56.203125 25.203125 
L 14.890625 25.203125 
Q 15.484375 15.921875 20.484375 11.0625 
Q 25.484375 6.203125 34.421875 6.203125 
Q 39.59375 6.203125 44.453125 7.46875 
Q 49.3125 8.734375 54.109375 11.28125 
L 54.109375 2.78125 
Q 49.265625 0.734375 44.1875 -0.34375 
Q 39.109375 -1.421875 33.890625 -1.421875 
Q 20.796875 -1.421875 13.15625 6.1875 
Q 5.515625 13.8125 5.515625 26.8125 
Q 5.515625 40.234375 12.765625 48.109375 
Q 20.015625 56 32.328125 56 
Q 43.359375 56 49.78125 48.890625 
Q 56.203125 41.796875 56.203125 29.59375 
z
M 47.21875 32.234375 
Q 47.125 39.59375 43.09375 43.984375 
Q 39.0625 48.390625 32.421875 48.390625 
Q 24.90625 48.390625 20.390625 44.140625 
Q 15.875 39.890625 15.1875 32.171875 
z
" id="DejaVuSans-101"/>
      <path id="DejaVuSans-32"/>
      <path d="M 8.59375 75.984375 
L 29.296875 75.984375 
L 29.296875 69 
L 17.578125 69 
L 17.578125 -6.203125 
L 29.296875 -6.203125 
L 29.296875 -13.1875 
L 8.59375 -13.1875 
z
" id="DejaVuSans-91"/>
      <path d="M 54.890625 33.015625 
L 54.890625 0 
L 45.90625 0 
L 45.90625 32.71875 
Q 45.90625 40.484375 42.875 44.328125 
Q 39.84375 48.1875 33.796875 48.1875 
Q 26.515625 48.1875 22.3125 43.546875 
Q 18.109375 38.921875 18.109375 30.90625 
L 18.109375 0 
L 9.078125 0 
L 9.078125 54.6875 
L 18.109375 54.6875 
L 18.109375 46.1875 
Q 21.34375 51.125 25.703125 53.5625 
Q 30.078125 56 35.796875 56 
Q 45.21875 56 50.046875 50.171875 
Q 54.890625 44.34375 54.890625 33.015625 
z
" id="DejaVuSans-110"/>
      <path d="M 30.421875 75.984375 
L 30.421875 -13.1875 
L 9.71875 -13.1875 
L 9.71875 -6.203125 
L 21.390625 -6.203125 
L 21.390625 69 
L 9.71875 69 
L 9.71875 75.984375 
z
" id="DejaVuSans-93"/>
     </defs>
     <g transform="translate(292.296875 419.496562)scale(0.1 -0.1)">
      <use xlink:href="#DejaVuSans-84"/>
      <use x="61.037109" xlink:href="#DejaVuSans-105"/>
      <use x="88.820312" xlink:href="#DejaVuSans-109"/>
      <use x="186.232422" xlink:href="#DejaVuSans-101"/>
      <use x="247.755859" xlink:href="#DejaVuSans-32"/>
      <use x="279.542969" xlink:href="#DejaVuSans-91"/>
      <use x="318.556641" xlink:href="#DejaVuSans-109"/>
      <use x="415.96875" xlink:href="#DejaVuSans-105"/>
      <use x="443.751953" xlink:href="#DejaVuSans-110"/>
      <use x="507.130859" xlink:href="#DejaVuSans-93"/>
     </g>
    </g>
   </g>
   <g id="matplotlib.axis_2">
    <g id="ytick_1">
     <g id="line2d_19">
      <path clip-path="url(#pc9452a4314)" d="M 40.603125 373.93607 
L 598.603125 373.93607 
" style="fill:none;stroke:#b0b0b0;stroke-linecap:square;stroke-width:0.8;"/>
     </g>
     <g id="line2d_20">
      <defs>
       <path d="M 0 0 
L -3.5 0 
" id="m50af770a6a" style="stroke:#000000;stroke-width:0.8;"/>
      </defs>
      <g>
       <use style="stroke:#000000;stroke-width:0.8;" x="40.603125" xlink:href="#m50af770a6a" y="373.93607"/>
      </g>
     </g>
     <g id="text_11">
      <!-- 0 -->
      <g transform="translate(27.240625 377.735288)scale(0.1 -0.1)">
       <use xlink:href="#DejaVuSans-48"/>
      </g>
     </g>
    </g>
    <g id="ytick_2">
     <g id="line2d_21">
      <path clip-path="url(#pc9452a4314)" d="M 40.603125 295.369194 
L 598.603125 295.369194 
" style="fill:none;stroke:#b0b0b0;stroke-linecap:square;stroke-width:0.8;"/>
     </g>
     <g id="line2d_22">
      <g>
       <use style="stroke:#000000;stroke-width:0.8;" x="40.603125" xlink:href="#m50af770a6a" y="295.369194"/>
      </g>
     </g>
     <g id="text_12">
      <!-- 20 -->
      <g transform="translate(20.878125 299.168412)scale(0.1 -0.1)">
       <use xlink:href="#DejaVuSans-50"/>
       <use x="63.623047" xlink:href="#DejaVuSans-48"/>
      </g>
     </g>
    </g>
    <g id="ytick_3">
     <g id="line2d_23">
      <path clip-path="url(#pc9452a4314)" d="M 40.603125 216.802317 
L 598.603125 216.802317 
" style="fill:none;stroke:#b0b0b0;stroke-linecap:square;stroke-width:0.8;"/>
     </g>
     <g id="line2d_24">
      <g>
       <use style="stroke:#000000;stroke-width:0.8;" x="40.603125" xlink:href="#m50af770a6a" y="216.802317"/>
      </g>
     </g>
     <g id="text_13">
      <!-- 40 -->
      <defs>
       <path d="M 37.796875 64.3125 
L 12.890625 25.390625 
L 37.796875 25.390625 
z
M 35.203125 72.90625 
L 47.609375 72.90625 
L 47.609375 25.390625 
L 58.015625 25.390625 
L 58.015625 17.1875 
L 47.609375 17.1875 
L 47.609375 0 
L 37.796875 0 
L 37.796875 17.1875 
L 4.890625 17.1875 
L 4.890625 26.703125 
z
" id="DejaVuSans-52"/>
      </defs>
      <g transform="translate(20.878125 220.601536)scale(0.1 -0.1)">
       <use xlink:href="#DejaVuSans-52"/>
       <use x="63.623047" xlink:href="#DejaVuSans-48"/>
      </g>
     </g>
    </g>
    <g id="ytick_4">
     <g id="line2d_25">
      <path clip-path="url(#pc9452a4314)" d="M 40.603125 138.235441 
L 598.603125 138.235441 
" style="fill:none;stroke:#b0b0b0;stroke-linecap:square;stroke-width:0.8;"/>
     </g>
     <g id="line2d_26">
      <g>
       <use style="stroke:#000000;stroke-width:0.8;" x="40.603125" xlink:href="#m50af770a6a" y="138.235441"/>
      </g>
     </g>
     <g id="text_14">
      <!-- 60 -->
      <defs>
       <path d="M 33.015625 40.375 
Q 26.375 40.375 22.484375 35.828125 
Q 18.609375 31.296875 18.609375 23.390625 
Q 18.609375 15.53125 22.484375 10.953125 
Q 26.375 6.390625 33.015625 6.390625 
Q 39.65625 6.390625 43.53125 10.953125 
Q 47.40625 15.53125 47.40625 23.390625 
Q 47.40625 31.296875 43.53125 35.828125 
Q 39.65625 40.375 33.015625 40.375 
z
M 52.59375 71.296875 
L 52.59375 62.3125 
Q 48.875 64.0625 45.09375 64.984375 
Q 41.3125 65.921875 37.59375 65.921875 
Q 27.828125 65.921875 22.671875 59.328125 
Q 17.53125 52.734375 16.796875 39.40625 
Q 19.671875 43.65625 24.015625 45.921875 
Q 28.375 48.1875 33.59375 48.1875 
Q 44.578125 48.1875 50.953125 41.515625 
Q 57.328125 34.859375 57.328125 23.390625 
Q 57.328125 12.15625 50.6875 5.359375 
Q 44.046875 -1.421875 33.015625 -1.421875 
Q 20.359375 -1.421875 13.671875 8.265625 
Q 6.984375 17.96875 6.984375 36.375 
Q 6.984375 53.65625 15.1875 63.9375 
Q 23.390625 74.21875 37.203125 74.21875 
Q 40.921875 74.21875 44.703125 73.484375 
Q 48.484375 72.75 52.59375 71.296875 
z
" id="DejaVuSans-54"/>
      </defs>
      <g transform="translate(20.878125 142.03466)scale(0.1 -0.1)">
       <use xlink:href="#DejaVuSans-54"/>
       <use x="63.623047" xlink:href="#DejaVuSans-48"/>
      </g>
     </g>
    </g>
    <g id="ytick_5">
     <g id="line2d_27">
      <path clip-path="url(#pc9452a4314)" d="M 40.603125 59.668565 
L 598.603125 59.668565 
" style="fill:none;stroke:#b0b0b0;stroke-linecap:square;stroke-width:0.8;"/>
     </g>
     <g id="line2d_28">
      <g>
       <use style="stroke:#000000;stroke-width:0.8;" x="40.603125" xlink:href="#m50af770a6a" y="59.668565"/>
      </g>
     </g>
     <g id="text_15">
      <!-- 80 -->
      <defs>
       <path d="M 31.78125 34.625 
Q 24.75 34.625 20.71875 30.859375 
Q 16.703125 27.09375 16.703125 20.515625 
Q 16.703125 13.921875 20.71875 10.15625 
Q 24.75 6.390625 31.78125 6.390625 
Q 38.8125 6.390625 42.859375 10.171875 
Q 46.921875 13.96875 46.921875 20.515625 
Q 46.921875 27.09375 42.890625 30.859375 
Q 38.875 34.625 31.78125 34.625 
z
M 21.921875 38.8125 
Q 15.578125 40.375 12.03125 44.71875 
Q 8.5 49.078125 8.5 55.328125 
Q 8.5 64.0625 14.71875 69.140625 
Q 20.953125 74.21875 31.78125 74.21875 
Q 42.671875 74.21875 48.875 69.140625 
Q 55.078125 64.0625 55.078125 55.328125 
Q 55.078125 49.078125 51.53125 44.71875 
Q 48 40.375 41.703125 38.8125 
Q 48.828125 37.15625 52.796875 32.3125 
Q 56.78125 27.484375 56.78125 20.515625 
Q 56.78125 9.90625 50.3125 4.234375 
Q 43.84375 -1.421875 31.78125 -1.421875 
Q 19.734375 -1.421875 13.25 4.234375 
Q 6.78125 9.90625 6.78125 20.515625 
Q 6.78125 27.484375 10.78125 32.3125 
Q 14.796875 37.15625 21.921875 38.8125 
z
M 18.3125 54.390625 
Q 18.3125 48.734375 21.84375 45.5625 
Q 25.390625 42.390625 31.78125 42.390625 
Q 38.140625 42.390625 41.71875 45.5625 
Q 45.3125 48.734375 45.3125 54.390625 
Q 45.3125 60.0625 41.71875 63.234375 
Q 38.140625 66.40625 31.78125 66.40625 
Q 25.390625 66.40625 21.84375 63.234375 
Q 18.3125 60.0625 18.3125 54.390625 
z
" id="DejaVuSans-56"/>
      </defs>
      <g transform="translate(20.878125 63.467784)scale(0.1 -0.1)">
       <use xlink:href="#DejaVuSans-56"/>
       <use x="63.623047" xlink:href="#DejaVuSans-48"/>
      </g>
     </g>
    </g>
    <g id="text_16">
     <!-- Error in the State Estimate [%] -->
     <defs>
      <path d="M 9.8125 72.90625 
L 55.90625 72.90625 
L 55.90625 64.59375 
L 19.671875 64.59375 
L 19.671875 43.015625 
L 54.390625 43.015625 
L 54.390625 34.71875 
L 19.671875 34.71875 
L 19.671875 8.296875 
L 56.78125 8.296875 
L 56.78125 0 
L 9.8125 0 
z
" id="DejaVuSans-69"/>
      <path d="M 41.109375 46.296875 
Q 39.59375 47.171875 37.8125 47.578125 
Q 36.03125 48 33.890625 48 
Q 26.265625 48 22.1875 43.046875 
Q 18.109375 38.09375 18.109375 28.8125 
L 18.109375 0 
L 9.078125 0 
L 9.078125 54.6875 
L 18.109375 54.6875 
L 18.109375 46.1875 
Q 20.953125 51.171875 25.484375 53.578125 
Q 30.03125 56 36.53125 56 
Q 37.453125 56 38.578125 55.875 
Q 39.703125 55.765625 41.0625 55.515625 
z
" id="DejaVuSans-114"/>
      <path d="M 30.609375 48.390625 
Q 23.390625 48.390625 19.1875 42.75 
Q 14.984375 37.109375 14.984375 27.296875 
Q 14.984375 17.484375 19.15625 11.84375 
Q 23.34375 6.203125 30.609375 6.203125 
Q 37.796875 6.203125 41.984375 11.859375 
Q 46.1875 17.53125 46.1875 27.296875 
Q 46.1875 37.015625 41.984375 42.703125 
Q 37.796875 48.390625 30.609375 48.390625 
z
M 30.609375 56 
Q 42.328125 56 49.015625 48.375 
Q 55.71875 40.765625 55.71875 27.296875 
Q 55.71875 13.875 49.015625 6.21875 
Q 42.328125 -1.421875 30.609375 -1.421875 
Q 18.84375 -1.421875 12.171875 6.21875 
Q 5.515625 13.875 5.515625 27.296875 
Q 5.515625 40.765625 12.171875 48.375 
Q 18.84375 56 30.609375 56 
z
" id="DejaVuSans-111"/>
      <path d="M 18.3125 70.21875 
L 18.3125 54.6875 
L 36.8125 54.6875 
L 36.8125 47.703125 
L 18.3125 47.703125 
L 18.3125 18.015625 
Q 18.3125 11.328125 20.140625 9.421875 
Q 21.96875 7.515625 27.59375 7.515625 
L 36.8125 7.515625 
L 36.8125 0 
L 27.59375 0 
Q 17.1875 0 13.234375 3.875 
Q 9.28125 7.765625 9.28125 18.015625 
L 9.28125 47.703125 
L 2.6875 47.703125 
L 2.6875 54.6875 
L 9.28125 54.6875 
L 9.28125 70.21875 
z
" id="DejaVuSans-116"/>
      <path d="M 54.890625 33.015625 
L 54.890625 0 
L 45.90625 0 
L 45.90625 32.71875 
Q 45.90625 40.484375 42.875 44.328125 
Q 39.84375 48.1875 33.796875 48.1875 
Q 26.515625 48.1875 22.3125 43.546875 
Q 18.109375 38.921875 18.109375 30.90625 
L 18.109375 0 
L 9.078125 0 
L 9.078125 75.984375 
L 18.109375 75.984375 
L 18.109375 46.1875 
Q 21.34375 51.125 25.703125 53.5625 
Q 30.078125 56 35.796875 56 
Q 45.21875 56 50.046875 50.171875 
Q 54.890625 44.34375 54.890625 33.015625 
z
" id="DejaVuSans-104"/>
      <path d="M 53.515625 70.515625 
L 53.515625 60.890625 
Q 47.90625 63.578125 42.921875 64.890625 
Q 37.9375 66.21875 33.296875 66.21875 
Q 25.25 66.21875 20.875 63.09375 
Q 16.5 59.96875 16.5 54.203125 
Q 16.5 49.359375 19.40625 46.890625 
Q 22.3125 44.4375 30.421875 42.921875 
L 36.375 41.703125 
Q 47.40625 39.59375 52.65625 34.296875 
Q 57.90625 29 57.90625 20.125 
Q 57.90625 9.515625 50.796875 4.046875 
Q 43.703125 -1.421875 29.984375 -1.421875 
Q 24.8125 -1.421875 18.96875 -0.25 
Q 13.140625 0.921875 6.890625 3.21875 
L 6.890625 13.375 
Q 12.890625 10.015625 18.65625 8.296875 
Q 24.421875 6.59375 29.984375 6.59375 
Q 38.421875 6.59375 43.015625 9.90625 
Q 47.609375 13.234375 47.609375 19.390625 
Q 47.609375 24.75 44.3125 27.78125 
Q 41.015625 30.8125 33.5 32.328125 
L 27.484375 33.5 
Q 16.453125 35.6875 11.515625 40.375 
Q 6.59375 45.0625 6.59375 53.421875 
Q 6.59375 63.09375 13.40625 68.65625 
Q 20.21875 74.21875 32.171875 74.21875 
Q 37.3125 74.21875 42.625 73.28125 
Q 47.953125 72.359375 53.515625 70.515625 
z
" id="DejaVuSans-83"/>
      <path d="M 34.28125 27.484375 
Q 23.390625 27.484375 19.1875 25 
Q 14.984375 22.515625 14.984375 16.5 
Q 14.984375 11.71875 18.140625 8.90625 
Q 21.296875 6.109375 26.703125 6.109375 
Q 34.1875 6.109375 38.703125 11.40625 
Q 43.21875 16.703125 43.21875 25.484375 
L 43.21875 27.484375 
z
M 52.203125 31.203125 
L 52.203125 0 
L 43.21875 0 
L 43.21875 8.296875 
Q 40.140625 3.328125 35.546875 0.953125 
Q 30.953125 -1.421875 24.3125 -1.421875 
Q 15.921875 -1.421875 10.953125 3.296875 
Q 6 8.015625 6 15.921875 
Q 6 25.140625 12.171875 29.828125 
Q 18.359375 34.515625 30.609375 34.515625 
L 43.21875 34.515625 
L 43.21875 35.40625 
Q 43.21875 41.609375 39.140625 45 
Q 35.0625 48.390625 27.6875 48.390625 
Q 23 48.390625 18.546875 47.265625 
Q 14.109375 46.140625 10.015625 43.890625 
L 10.015625 52.203125 
Q 14.9375 54.109375 19.578125 55.046875 
Q 24.21875 56 28.609375 56 
Q 40.484375 56 46.34375 49.84375 
Q 52.203125 43.703125 52.203125 31.203125 
z
" id="DejaVuSans-97"/>
      <path d="M 44.28125 53.078125 
L 44.28125 44.578125 
Q 40.484375 46.53125 36.375 47.5 
Q 32.28125 48.484375 27.875 48.484375 
Q 21.1875 48.484375 17.84375 46.4375 
Q 14.5 44.390625 14.5 40.28125 
Q 14.5 37.15625 16.890625 35.375 
Q 19.28125 33.59375 26.515625 31.984375 
L 29.59375 31.296875 
Q 39.15625 29.25 43.1875 25.515625 
Q 47.21875 21.78125 47.21875 15.09375 
Q 47.21875 7.46875 41.1875 3.015625 
Q 35.15625 -1.421875 24.609375 -1.421875 
Q 20.21875 -1.421875 15.453125 -0.5625 
Q 10.6875 0.296875 5.421875 2 
L 5.421875 11.28125 
Q 10.40625 8.6875 15.234375 7.390625 
Q 20.0625 6.109375 24.8125 6.109375 
Q 31.15625 6.109375 34.5625 8.28125 
Q 37.984375 10.453125 37.984375 14.40625 
Q 37.984375 18.0625 35.515625 20.015625 
Q 33.0625 21.96875 24.703125 23.78125 
L 21.578125 24.515625 
Q 13.234375 26.265625 9.515625 29.90625 
Q 5.8125 33.546875 5.8125 39.890625 
Q 5.8125 47.609375 11.28125 51.796875 
Q 16.75 56 26.8125 56 
Q 31.78125 56 36.171875 55.265625 
Q 40.578125 54.546875 44.28125 53.078125 
z
" id="DejaVuSans-115"/>
      <path d="M 72.703125 32.078125 
Q 68.453125 32.078125 66.03125 28.46875 
Q 63.625 24.859375 63.625 18.40625 
Q 63.625 12.0625 66.03125 8.421875 
Q 68.453125 4.78125 72.703125 4.78125 
Q 76.859375 4.78125 79.265625 8.421875 
Q 81.6875 12.0625 81.6875 18.40625 
Q 81.6875 24.8125 79.265625 28.4375 
Q 76.859375 32.078125 72.703125 32.078125 
z
M 72.703125 38.28125 
Q 80.421875 38.28125 84.953125 32.90625 
Q 89.5 27.546875 89.5 18.40625 
Q 89.5 9.28125 84.9375 3.921875 
Q 80.375 -1.421875 72.703125 -1.421875 
Q 64.890625 -1.421875 60.34375 3.921875 
Q 55.8125 9.28125 55.8125 18.40625 
Q 55.8125 27.59375 60.375 32.9375 
Q 64.9375 38.28125 72.703125 38.28125 
z
M 22.3125 68.015625 
Q 18.109375 68.015625 15.6875 64.375 
Q 13.28125 60.75 13.28125 54.390625 
Q 13.28125 47.953125 15.671875 44.328125 
Q 18.0625 40.71875 22.3125 40.71875 
Q 26.5625 40.71875 28.96875 44.328125 
Q 31.390625 47.953125 31.390625 54.390625 
Q 31.390625 60.6875 28.953125 64.34375 
Q 26.515625 68.015625 22.3125 68.015625 
z
M 66.40625 74.21875 
L 74.21875 74.21875 
L 28.609375 -1.421875 
L 20.796875 -1.421875 
z
M 22.3125 74.21875 
Q 30.03125 74.21875 34.609375 68.875 
Q 39.203125 63.53125 39.203125 54.390625 
Q 39.203125 45.171875 34.640625 39.84375 
Q 30.078125 34.515625 22.3125 34.515625 
Q 14.546875 34.515625 10.03125 39.859375 
Q 5.515625 45.21875 5.515625 54.390625 
Q 5.515625 63.484375 10.046875 68.84375 
Q 14.59375 74.21875 22.3125 74.21875 
z
" id="DejaVuSans-37"/>
     </defs>
     <g transform="translate(14.798437 278.023281)rotate(-90)scale(0.1 -0.1)">
      <use xlink:href="#DejaVuSans-69"/>
      <use x="63.183594" xlink:href="#DejaVuSans-114"/>
      <use x="104.28125" xlink:href="#DejaVuSans-114"/>
      <use x="145.363281" xlink:href="#DejaVuSans-111"/>
      <use x="206.544922" xlink:href="#DejaVuSans-114"/>
      <use x="247.658203" xlink:href="#DejaVuSans-32"/>
      <use x="279.445312" xlink:href="#DejaVuSans-105"/>
      <use x="307.228516" xlink:href="#DejaVuSans-110"/>
      <use x="370.607422" xlink:href="#DejaVuSans-32"/>
      <use x="402.394531" xlink:href="#DejaVuSans-116"/>
      <use x="441.603516" xlink:href="#DejaVuSans-104"/>
      <use x="504.982422" xlink:href="#DejaVuSans-101"/>
      <use x="566.505859" xlink:href="#DejaVuSans-32"/>
      <use x="598.292969" xlink:href="#DejaVuSans-83"/>
      <use x="661.769531" xlink:href="#DejaVuSans-116"/>
      <use x="700.978516" xlink:href="#DejaVuSans-97"/>
      <use x="762.257812" xlink:href="#DejaVuSans-116"/>
      <use x="801.466797" xlink:href="#DejaVuSans-101"/>
      <use x="862.990234" xlink:href="#DejaVuSans-32"/>
      <use x="894.777344" xlink:href="#DejaVuSans-69"/>
      <use x="957.960938" xlink:href="#DejaVuSans-115"/>
      <use x="1010.060547" xlink:href="#DejaVuSans-116"/>
      <use x="1049.269531" xlink:href="#DejaVuSans-105"/>
      <use x="1077.052734" xlink:href="#DejaVuSans-109"/>
      <use x="1174.464844" xlink:href="#DejaVuSans-97"/>
      <use x="1235.744141" xlink:href="#DejaVuSans-116"/>
      <use x="1274.953125" xlink:href="#DejaVuSans-101"/>
      <use x="1336.476562" xlink:href="#DejaVuSans-32"/>
      <use x="1368.263672" xlink:href="#DejaVuSans-91"/>
      <use x="1407.277344" xlink:href="#DejaVuSans-37"/>
      <use x="1502.296875" xlink:href="#DejaVuSans-93"/>
     </g>
    </g>
   </g>
   <g id="patch_3">
    <path d="M 40.603125 391.22 
L 40.603125 10.7 
" style="fill:none;stroke:#000000;stroke-linecap:square;stroke-linejoin:miter;stroke-width:0.8;"/>
   </g>
   <g id="patch_4">
    <path d="M 598.603125 391.22 
L 598.603125 10.7 
" style="fill:none;stroke:#000000;stroke-linecap:square;stroke-linejoin:miter;stroke-width:0.8;"/>
   </g>
   <g id="patch_5">
    <path d="M 40.603125 391.22 
L 598.603125 391.22 
" style="fill:none;stroke:#000000;stroke-linecap:square;stroke-linejoin:miter;stroke-width:0.8;"/>
   </g>
   <g id="patch_6">
    <path d="M 40.603125 10.7 
L 598.603125 10.7 
" style="fill:none;stroke:#000000;stroke-linecap:square;stroke-linejoin:miter;stroke-width:0.8;"/>
   </g>
   <g id="legend_1">
    <g id="patch_7">
     <path d="M 587.603125 23.7 
L 591.603125 23.7 
Q 593.603125 23.7 593.603125 21.7 
L 593.603125 17.7 
Q 593.603125 15.7 591.603125 15.7 
L 587.603125 15.7 
Q 585.603125 15.7 585.603125 17.7 
L 585.603125 21.7 
Q 585.603125 23.7 587.603125 23.7 
z
" style="fill:#ffffff;opacity:0.8;stroke:#cccccc;stroke-linejoin:miter;"/>
    </g>
   </g>
  </g>
 </g>
 <defs>
  <clipPath id="pc9452a4314">
   <rect height="380.52" width="558" x="40.603125" y="10.7"/>
  </clipPath>
 </defs>
</svg>
