<?xml version="1.0" encoding="utf-8" standalone="no"?>
<!DOCTYPE svg PUBLIC "-//W3C//DTD SVG 1.1//EN"
  "http://www.w3.org/Graphics/SVG/1.1/DTD/svg11.dtd">
<!-- Created with matplotlib (https://matplotlib.org/) -->
<svg height="428.77625pt" version="1.1" viewBox="0 0 609.303125 428.77625" width="609.303125pt" xmlns="http://www.w3.org/2000/svg" xmlns:xlink="http://www.w3.org/1999/xlink">
 <defs>
  <style type="text/css">
*{stroke-linecap:butt;stroke-linejoin:round;}
  </style>
 </defs>
 <g id="figure_1">
  <g id="patch_1">
   <path d="M 0 428.77625 
L 609.303125 428.77625 
L 609.303125 0 
L 0 0 
z
" style="fill:#ffffff;"/>
  </g>
  <g id="axes_1">
   <g id="patch_2">
    <path d="M 40.603125 391.22 
L 598.603125 391.22 
L 598.603125 10.7 
L 40.603125 10.7 
z
" style="fill:#ffffff;"/>
   </g>
   <g id="PathCollection_1">
    <defs>
     <path d="M 0 3 
C 0.795609 3 1.55874 2.683901 2.12132 2.12132 
C 2.683901 1.55874 3 0.795609 3 0 
C 3 -0.795609 2.683901 -1.55874 2.12132 -2.12132 
C 1.55874 -2.683901 0.795609 -3 0 -3 
C -0.795609 -3 -1.55874 -2.683901 -2.12132 -2.12132 
C -2.683901 -1.55874 -3 -0.795609 -3 0 
C -3 0.795609 -2.683901 1.55874 -2.12132 2.12132 
C -1.55874 2.683901 -0.795609 3 0 3 
z
" id="m6ae007b773" style="stroke:#1f77b4;"/>
    </defs>
    <g clip-path="url(#p0b8b13e97e)">
     <use style="fill:#1f77b4;stroke:#1f77b4;" x="68.933268" xlink:href="#m6ae007b773" y="240.737543"/>
     <use style="fill:#1f77b4;stroke:#1f77b4;" x="75.200014" xlink:href="#m6ae007b773" y="228.724273"/>
     <use style="fill:#1f77b4;stroke:#1f77b4;" x="81.466761" xlink:href="#m6ae007b773" y="260.918287"/>
     <use style="fill:#1f77b4;stroke:#1f77b4;" x="87.733507" xlink:href="#m6ae007b773" y="258.236504"/>
     <use style="fill:#1f77b4;stroke:#1f77b4;" x="94.000253" xlink:href="#m6ae007b773" y="323.542647"/>
     <use style="fill:#1f77b4;stroke:#1f77b4;" x="100.267" xlink:href="#m6ae007b773" y="275.553905"/>
     <use style="fill:#1f77b4;stroke:#1f77b4;" x="106.533746" xlink:href="#m6ae007b773" y="299.106474"/>
     <use style="fill:#1f77b4;stroke:#1f77b4;" x="112.800493" xlink:href="#m6ae007b773" y="296.035897"/>
     <use style="fill:#1f77b4;stroke:#1f77b4;" x="119.067239" xlink:href="#m6ae007b773" y="358.41239"/>
     <use style="fill:#1f77b4;stroke:#1f77b4;" x="125.333986" xlink:href="#m6ae007b773" y="312.097135"/>
     <use style="fill:#1f77b4;stroke:#1f77b4;" x="131.600732" xlink:href="#m6ae007b773" y="331.23779"/>
     <use style="fill:#1f77b4;stroke:#1f77b4;" x="137.867478" xlink:href="#m6ae007b773" y="331.057596"/>
     <use style="fill:#1f77b4;stroke:#1f77b4;" x="144.134225" xlink:href="#m6ae007b773" y="359.041416"/>
     <use style="fill:#1f77b4;stroke:#1f77b4;" x="150.400971" xlink:href="#m6ae007b773" y="345.428155"/>
     <use style="fill:#1f77b4;stroke:#1f77b4;" x="156.667718" xlink:href="#m6ae007b773" y="360.56767"/>
     <use style="fill:#1f77b4;stroke:#1f77b4;" x="162.934464" xlink:href="#m6ae007b773" y="362.85347"/>
     <use style="fill:#1f77b4;stroke:#1f77b4;" x="169.201211" xlink:href="#m6ae007b773" y="331.658142"/>
     <use style="fill:#1f77b4;stroke:#1f77b4;" x="175.467957" xlink:href="#m6ae007b773" y="373.871649"/>
     <use style="fill:#1f77b4;stroke:#1f77b4;" x="181.734703" xlink:href="#m6ae007b773" y="361.778035"/>
     <use style="fill:#1f77b4;stroke:#1f77b4;" x="188.00145" xlink:href="#m6ae007b773" y="357.963926"/>
     <use style="fill:#1f77b4;stroke:#1f77b4;" x="194.268196" xlink:href="#m6ae007b773" y="307.400107"/>
     <use style="fill:#1f77b4;stroke:#1f77b4;" x="200.534943" xlink:href="#m6ae007b773" y="349.215745"/>
     <use style="fill:#1f77b4;stroke:#1f77b4;" x="206.801689" xlink:href="#m6ae007b773" y="334.877953"/>
     <use style="fill:#1f77b4;stroke:#1f77b4;" x="213.068436" xlink:href="#m6ae007b773" y="294.131569"/>
     <use style="fill:#1f77b4;stroke:#1f77b4;" x="219.335182" xlink:href="#m6ae007b773" y="287.653357"/>
     <use style="fill:#1f77b4;stroke:#1f77b4;" x="225.601929" xlink:href="#m6ae007b773" y="287.341401"/>
     <use style="fill:#1f77b4;stroke:#1f77b4;" x="231.868675" xlink:href="#m6ae007b773" y="315.636346"/>
     <use style="fill:#1f77b4;stroke:#1f77b4;" x="238.135421" xlink:href="#m6ae007b773" y="277.472008"/>
     <use style="fill:#1f77b4;stroke:#1f77b4;" x="244.402168" xlink:href="#m6ae007b773" y="270.642136"/>
     <use style="fill:#1f77b4;stroke:#1f77b4;" x="250.668914" xlink:href="#m6ae007b773" y="271.4116"/>
     <use style="fill:#1f77b4;stroke:#1f77b4;" x="256.935661" xlink:href="#m6ae007b773" y="227.472005"/>
     <use style="fill:#1f77b4;stroke:#1f77b4;" x="263.202407" xlink:href="#m6ae007b773" y="264.795491"/>
     <use style="fill:#1f77b4;stroke:#1f77b4;" x="269.469154" xlink:href="#m6ae007b773" y="255.161052"/>
     <use style="fill:#1f77b4;stroke:#1f77b4;" x="275.7359" xlink:href="#m6ae007b773" y="257.186841"/>
     <use style="fill:#1f77b4;stroke:#1f77b4;" x="282.002646" xlink:href="#m6ae007b773" y="219.683223"/>
     <use style="fill:#1f77b4;stroke:#1f77b4;" x="288.269393" xlink:href="#m6ae007b773" y="249.926175"/>
     <use style="fill:#1f77b4;stroke:#1f77b4;" x="294.536139" xlink:href="#m6ae007b773" y="187.909227"/>
     <use style="fill:#1f77b4;stroke:#1f77b4;" x="300.802886" xlink:href="#m6ae007b773" y="190.406139"/>
     <use style="fill:#1f77b4;stroke:#1f77b4;" x="307.069632" xlink:href="#m6ae007b773" y="173.430138"/>
     <use style="fill:#1f77b4;stroke:#1f77b4;" x="313.336379" xlink:href="#m6ae007b773" y="181.929183"/>
     <use style="fill:#1f77b4;stroke:#1f77b4;" x="319.603125" xlink:href="#m6ae007b773" y="172.560826"/>
     <use style="fill:#1f77b4;stroke:#1f77b4;" x="325.869871" xlink:href="#m6ae007b773" y="175.597596"/>
     <use style="fill:#1f77b4;stroke:#1f77b4;" x="332.136618" xlink:href="#m6ae007b773" y="168.343365"/>
     <use style="fill:#1f77b4;stroke:#1f77b4;" x="338.403364" xlink:href="#m6ae007b773" y="170.006882"/>
     <use style="fill:#1f77b4;stroke:#1f77b4;" x="344.670111" xlink:href="#m6ae007b773" y="159.363114"/>
     <use style="fill:#1f77b4;stroke:#1f77b4;" x="350.936857" xlink:href="#m6ae007b773" y="166.907294"/>
     <use style="fill:#1f77b4;stroke:#1f77b4;" x="357.203604" xlink:href="#m6ae007b773" y="163.280982"/>
     <use style="fill:#1f77b4;stroke:#1f77b4;" x="363.47035" xlink:href="#m6ae007b773" y="163.04999"/>
     <use style="fill:#1f77b4;stroke:#1f77b4;" x="369.737096" xlink:href="#m6ae007b773" y="150.371715"/>
     <use style="fill:#1f77b4;stroke:#1f77b4;" x="376.003843" xlink:href="#m6ae007b773" y="162.868482"/>
     <use style="fill:#1f77b4;stroke:#1f77b4;" x="382.270589" xlink:href="#m6ae007b773" y="165.329623"/>
     <use style="fill:#1f77b4;stroke:#1f77b4;" x="388.537336" xlink:href="#m6ae007b773" y="155.478632"/>
     <use style="fill:#1f77b4;stroke:#1f77b4;" x="394.804082" xlink:href="#m6ae007b773" y="140.691771"/>
     <use style="fill:#1f77b4;stroke:#1f77b4;" x="401.070829" xlink:href="#m6ae007b773" y="152.94961"/>
     <use style="fill:#1f77b4;stroke:#1f77b4;" x="407.337575" xlink:href="#m6ae007b773" y="157.271415"/>
     <use style="fill:#1f77b4;stroke:#1f77b4;" x="413.604321" xlink:href="#m6ae007b773" y="137.936748"/>
     <use style="fill:#1f77b4;stroke:#1f77b4;" x="419.871068" xlink:href="#m6ae007b773" y="131.45539"/>
     <use style="fill:#1f77b4;stroke:#1f77b4;" x="426.137814" xlink:href="#m6ae007b773" y="136.259387"/>
     <use style="fill:#1f77b4;stroke:#1f77b4;" x="432.404561" xlink:href="#m6ae007b773" y="148.506467"/>
     <use style="fill:#1f77b4;stroke:#1f77b4;" x="438.671307" xlink:href="#m6ae007b773" y="128.816447"/>
     <use style="fill:#1f77b4;stroke:#1f77b4;" x="444.938054" xlink:href="#m6ae007b773" y="121.397415"/>
     <use style="fill:#1f77b4;stroke:#1f77b4;" x="451.2048" xlink:href="#m6ae007b773" y="126.777787"/>
     <use style="fill:#1f77b4;stroke:#1f77b4;" x="457.471547" xlink:href="#m6ae007b773" y="105.764213"/>
     <use style="fill:#1f77b4;stroke:#1f77b4;" x="463.738293" xlink:href="#m6ae007b773" y="88.367993"/>
     <use style="fill:#1f77b4;stroke:#1f77b4;" x="470.005039" xlink:href="#m6ae007b773" y="79.172503"/>
     <use style="fill:#1f77b4;stroke:#1f77b4;" x="476.271786" xlink:href="#m6ae007b773" y="82.829713"/>
     <use style="fill:#1f77b4;stroke:#1f77b4;" x="482.538532" xlink:href="#m6ae007b773" y="92.636154"/>
     <use style="fill:#1f77b4;stroke:#1f77b4;" x="488.805279" xlink:href="#m6ae007b773" y="72.539044"/>
     <use style="fill:#1f77b4;stroke:#1f77b4;" x="495.072025" xlink:href="#m6ae007b773" y="63.104528"/>
     <use style="fill:#1f77b4;stroke:#1f77b4;" x="501.338772" xlink:href="#m6ae007b773" y="69.645746"/>
     <use style="fill:#1f77b4;stroke:#1f77b4;" x="507.605518" xlink:href="#m6ae007b773" y="80.55351"/>
     <use style="fill:#1f77b4;stroke:#1f77b4;" x="513.872264" xlink:href="#m6ae007b773" y="61.217606"/>
     <use style="fill:#1f77b4;stroke:#1f77b4;" x="520.139011" xlink:href="#m6ae007b773" y="53.634554"/>
     <use style="fill:#1f77b4;stroke:#1f77b4;" x="526.405757" xlink:href="#m6ae007b773" y="58.156759"/>
     <use style="fill:#1f77b4;stroke:#1f77b4;" x="532.672504" xlink:href="#m6ae007b773" y="67.31297"/>
     <use style="fill:#1f77b4;stroke:#1f77b4;" x="538.93925" xlink:href="#m6ae007b773" y="50.017632"/>
     <use style="fill:#1f77b4;stroke:#1f77b4;" x="545.205997" xlink:href="#m6ae007b773" y="41.532452"/>
     <use style="fill:#1f77b4;stroke:#1f77b4;" x="551.472743" xlink:href="#m6ae007b773" y="44.974624"/>
     <use style="fill:#1f77b4;stroke:#1f77b4;" x="557.739489" xlink:href="#m6ae007b773" y="52.378921"/>
     <use style="fill:#1f77b4;stroke:#1f77b4;" x="564.006236" xlink:href="#m6ae007b773" y="35.3701"/>
     <use style="fill:#1f77b4;stroke:#1f77b4;" x="570.272982" xlink:href="#m6ae007b773" y="28.048351"/>
    </g>
   </g>
   <g id="PathCollection_2">
    <defs>
     <path d="M 0 3 
C 0.795609 3 1.55874 2.683901 2.12132 2.12132 
C 2.683901 1.55874 3 0.795609 3 0 
C 3 -0.795609 2.683901 -1.55874 2.12132 -2.12132 
C 1.55874 -2.683901 0.795609 -3 0 -3 
C -0.795609 -3 -1.55874 -2.683901 -2.12132 -2.12132 
C -2.683901 -1.55874 -3 -0.795609 -3 0 
C -3 0.795609 -2.683901 1.55874 -2.12132 2.12132 
C -1.55874 2.683901 -0.795609 3 0 3 
z
" id="mee2b9c9159" style="stroke:#ff7f0e;"/>
    </defs>
    <g clip-path="url(#p0b8b13e97e)">
     <use style="fill:#ff7f0e;stroke:#ff7f0e;" x="68.933268" xlink:href="#mee2b9c9159" y="85.848336"/>
     <use style="fill:#ff7f0e;stroke:#ff7f0e;" x="75.200014" xlink:href="#mee2b9c9159" y="150.607083"/>
     <use style="fill:#ff7f0e;stroke:#ff7f0e;" x="81.466761" xlink:href="#mee2b9c9159" y="88.424638"/>
     <use style="fill:#ff7f0e;stroke:#ff7f0e;" x="87.733507" xlink:href="#mee2b9c9159" y="108.074038"/>
     <use style="fill:#ff7f0e;stroke:#ff7f0e;" x="94.000253" xlink:href="#mee2b9c9159" y="124.876075"/>
     <use style="fill:#ff7f0e;stroke:#ff7f0e;" x="100.267" xlink:href="#mee2b9c9159" y="137.109458"/>
     <use style="fill:#ff7f0e;stroke:#ff7f0e;" x="106.533746" xlink:href="#mee2b9c9159" y="137.519938"/>
     <use style="fill:#ff7f0e;stroke:#ff7f0e;" x="112.800493" xlink:href="#mee2b9c9159" y="153.688717"/>
     <use style="fill:#ff7f0e;stroke:#ff7f0e;" x="119.067239" xlink:href="#mee2b9c9159" y="165.795138"/>
     <use style="fill:#ff7f0e;stroke:#ff7f0e;" x="125.333986" xlink:href="#mee2b9c9159" y="172.53888"/>
     <use style="fill:#ff7f0e;stroke:#ff7f0e;" x="131.600732" xlink:href="#mee2b9c9159" y="172.59495"/>
     <use style="fill:#ff7f0e;stroke:#ff7f0e;" x="137.867478" xlink:href="#mee2b9c9159" y="180.340544"/>
     <use style="fill:#ff7f0e;stroke:#ff7f0e;" x="144.134225" xlink:href="#mee2b9c9159" y="189.001363"/>
     <use style="fill:#ff7f0e;stroke:#ff7f0e;" x="150.400971" xlink:href="#mee2b9c9159" y="191.990436"/>
     <use style="fill:#ff7f0e;stroke:#ff7f0e;" x="156.667718" xlink:href="#mee2b9c9159" y="189.565979"/>
     <use style="fill:#ff7f0e;stroke:#ff7f0e;" x="162.934464" xlink:href="#mee2b9c9159" y="194.715901"/>
     <use style="fill:#ff7f0e;stroke:#ff7f0e;" x="169.201211" xlink:href="#mee2b9c9159" y="200.539475"/>
     <use style="fill:#ff7f0e;stroke:#ff7f0e;" x="175.467957" xlink:href="#mee2b9c9159" y="201.991066"/>
     <use style="fill:#ff7f0e;stroke:#ff7f0e;" x="181.734703" xlink:href="#mee2b9c9159" y="198.644292"/>
     <use style="fill:#ff7f0e;stroke:#ff7f0e;" x="188.00145" xlink:href="#mee2b9c9159" y="201.723995"/>
     <use style="fill:#ff7f0e;stroke:#ff7f0e;" x="194.268196" xlink:href="#mee2b9c9159" y="206.792228"/>
     <use style="fill:#ff7f0e;stroke:#ff7f0e;" x="200.534943" xlink:href="#mee2b9c9159" y="206.689747"/>
     <use style="fill:#ff7f0e;stroke:#ff7f0e;" x="206.801689" xlink:href="#mee2b9c9159" y="204.494334"/>
     <use style="fill:#ff7f0e;stroke:#ff7f0e;" x="213.068436" xlink:href="#mee2b9c9159" y="207.736238"/>
     <use style="fill:#ff7f0e;stroke:#ff7f0e;" x="219.335182" xlink:href="#mee2b9c9159" y="212.087272"/>
     <use style="fill:#ff7f0e;stroke:#ff7f0e;" x="225.601929" xlink:href="#mee2b9c9159" y="213.23405"/>
     <use style="fill:#ff7f0e;stroke:#ff7f0e;" x="231.868675" xlink:href="#mee2b9c9159" y="209.185371"/>
     <use style="fill:#ff7f0e;stroke:#ff7f0e;" x="238.135421" xlink:href="#mee2b9c9159" y="212.025551"/>
     <use style="fill:#ff7f0e;stroke:#ff7f0e;" x="244.402168" xlink:href="#mee2b9c9159" y="214.733787"/>
     <use style="fill:#ff7f0e;stroke:#ff7f0e;" x="250.668914" xlink:href="#mee2b9c9159" y="215.378613"/>
     <use style="fill:#ff7f0e;stroke:#ff7f0e;" x="256.935661" xlink:href="#mee2b9c9159" y="215.681641"/>
     <use style="fill:#ff7f0e;stroke:#ff7f0e;" x="263.202407" xlink:href="#mee2b9c9159" y="222.085123"/>
     <use style="fill:#ff7f0e;stroke:#ff7f0e;" x="269.469154" xlink:href="#mee2b9c9159" y="221.833375"/>
     <use style="fill:#ff7f0e;stroke:#ff7f0e;" x="275.7359" xlink:href="#mee2b9c9159" y="220.960966"/>
     <use style="fill:#ff7f0e;stroke:#ff7f0e;" x="282.002646" xlink:href="#mee2b9c9159" y="223.098136"/>
     <use style="fill:#ff7f0e;stroke:#ff7f0e;" x="288.269393" xlink:href="#mee2b9c9159" y="224.375541"/>
     <use style="fill:#ff7f0e;stroke:#ff7f0e;" x="294.536139" xlink:href="#mee2b9c9159" y="231.570731"/>
     <use style="fill:#ff7f0e;stroke:#ff7f0e;" x="300.802886" xlink:href="#mee2b9c9159" y="239.947649"/>
     <use style="fill:#ff7f0e;stroke:#ff7f0e;" x="307.069632" xlink:href="#mee2b9c9159" y="234.181631"/>
     <use style="fill:#ff7f0e;stroke:#ff7f0e;" x="313.336379" xlink:href="#mee2b9c9159" y="247.659396"/>
     <use style="fill:#ff7f0e;stroke:#ff7f0e;" x="319.603125" xlink:href="#mee2b9c9159" y="250.675389"/>
     <use style="fill:#ff7f0e;stroke:#ff7f0e;" x="325.869871" xlink:href="#mee2b9c9159" y="255.600004"/>
     <use style="fill:#ff7f0e;stroke:#ff7f0e;" x="332.136618" xlink:href="#mee2b9c9159" y="247.069454"/>
     <use style="fill:#ff7f0e;stroke:#ff7f0e;" x="338.403364" xlink:href="#mee2b9c9159" y="255.147835"/>
     <use style="fill:#ff7f0e;stroke:#ff7f0e;" x="344.670111" xlink:href="#mee2b9c9159" y="255.409465"/>
     <use style="fill:#ff7f0e;stroke:#ff7f0e;" x="350.936857" xlink:href="#mee2b9c9159" y="256.528941"/>
     <use style="fill:#ff7f0e;stroke:#ff7f0e;" x="357.203604" xlink:href="#mee2b9c9159" y="247.596212"/>
     <use style="fill:#ff7f0e;stroke:#ff7f0e;" x="363.47035" xlink:href="#mee2b9c9159" y="253.537928"/>
     <use style="fill:#ff7f0e;stroke:#ff7f0e;" x="369.737096" xlink:href="#mee2b9c9159" y="251.74953"/>
     <use style="fill:#ff7f0e;stroke:#ff7f0e;" x="376.003843" xlink:href="#mee2b9c9159" y="253.0545"/>
     <use style="fill:#ff7f0e;stroke:#ff7f0e;" x="382.270589" xlink:href="#mee2b9c9159" y="245.660643"/>
     <use style="fill:#ff7f0e;stroke:#ff7f0e;" x="388.537336" xlink:href="#mee2b9c9159" y="248.709299"/>
     <use style="fill:#ff7f0e;stroke:#ff7f0e;" x="394.804082" xlink:href="#mee2b9c9159" y="245.002427"/>
     <use style="fill:#ff7f0e;stroke:#ff7f0e;" x="401.070829" xlink:href="#mee2b9c9159" y="245.363939"/>
     <use style="fill:#ff7f0e;stroke:#ff7f0e;" x="407.337575" xlink:href="#mee2b9c9159" y="238.223206"/>
     <use style="fill:#ff7f0e;stroke:#ff7f0e;" x="413.604321" xlink:href="#mee2b9c9159" y="238.52769"/>
     <use style="fill:#ff7f0e;stroke:#ff7f0e;" x="419.871068" xlink:href="#mee2b9c9159" y="236.269892"/>
     <use style="fill:#ff7f0e;stroke:#ff7f0e;" x="426.137814" xlink:href="#mee2b9c9159" y="234.855603"/>
     <use style="fill:#ff7f0e;stroke:#ff7f0e;" x="432.404561" xlink:href="#mee2b9c9159" y="228.766244"/>
     <use style="fill:#ff7f0e;stroke:#ff7f0e;" x="438.671307" xlink:href="#mee2b9c9159" y="229.136501"/>
     <use style="fill:#ff7f0e;stroke:#ff7f0e;" x="444.938054" xlink:href="#mee2b9c9159" y="227.1006"/>
     <use style="fill:#ff7f0e;stroke:#ff7f0e;" x="451.2048" xlink:href="#mee2b9c9159" y="225.777866"/>
     <use style="fill:#ff7f0e;stroke:#ff7f0e;" x="457.471547" xlink:href="#mee2b9c9159" y="222.178216"/>
     <use style="fill:#ff7f0e;stroke:#ff7f0e;" x="463.738293" xlink:href="#mee2b9c9159" y="227.3452"/>
     <use style="fill:#ff7f0e;stroke:#ff7f0e;" x="470.005039" xlink:href="#mee2b9c9159" y="225.524836"/>
     <use style="fill:#ff7f0e;stroke:#ff7f0e;" x="476.271786" xlink:href="#mee2b9c9159" y="228.828016"/>
     <use style="fill:#ff7f0e;stroke:#ff7f0e;" x="482.538532" xlink:href="#mee2b9c9159" y="225.123996"/>
     <use style="fill:#ff7f0e;stroke:#ff7f0e;" x="488.805279" xlink:href="#mee2b9c9159" y="227.267491"/>
     <use style="fill:#ff7f0e;stroke:#ff7f0e;" x="495.072025" xlink:href="#mee2b9c9159" y="225.653947"/>
     <use style="fill:#ff7f0e;stroke:#ff7f0e;" x="501.338772" xlink:href="#mee2b9c9159" y="226.40688"/>
     <use style="fill:#ff7f0e;stroke:#ff7f0e;" x="507.605518" xlink:href="#mee2b9c9159" y="220.612609"/>
     <use style="fill:#ff7f0e;stroke:#ff7f0e;" x="513.872264" xlink:href="#mee2b9c9159" y="223.260516"/>
     <use style="fill:#ff7f0e;stroke:#ff7f0e;" x="520.139011" xlink:href="#mee2b9c9159" y="221.002906"/>
     <use style="fill:#ff7f0e;stroke:#ff7f0e;" x="526.405757" xlink:href="#mee2b9c9159" y="220.703227"/>
     <use style="fill:#ff7f0e;stroke:#ff7f0e;" x="532.672504" xlink:href="#mee2b9c9159" y="216.326231"/>
     <use style="fill:#ff7f0e;stroke:#ff7f0e;" x="538.93925" xlink:href="#mee2b9c9159" y="216.158158"/>
     <use style="fill:#ff7f0e;stroke:#ff7f0e;" x="545.205997" xlink:href="#mee2b9c9159" y="213.255617"/>
     <use style="fill:#ff7f0e;stroke:#ff7f0e;" x="551.472743" xlink:href="#mee2b9c9159" y="213.23918"/>
     <use style="fill:#ff7f0e;stroke:#ff7f0e;" x="557.739489" xlink:href="#mee2b9c9159" y="208.701638"/>
     <use style="fill:#ff7f0e;stroke:#ff7f0e;" x="564.006236" xlink:href="#mee2b9c9159" y="208.208334"/>
     <use style="fill:#ff7f0e;stroke:#ff7f0e;" x="570.272982" xlink:href="#mee2b9c9159" y="205.131309"/>
    </g>
   </g>
   <g id="matplotlib.axis_1">
    <g id="xtick_1">
     <g id="line2d_1">
      <path clip-path="url(#p0b8b13e97e)" d="M 68.933268 391.22 
L 68.933268 10.7 
" style="fill:none;stroke:#b0b0b0;stroke-linecap:square;stroke-width:0.8;"/>
     </g>
     <g id="line2d_2">
      <defs>
       <path d="M 0 0 
L 0 3.5 
" id="m89b6aff432" style="stroke:#000000;stroke-width:0.8;"/>
      </defs>
      <g>
       <use style="stroke:#000000;stroke-width:0.8;" x="68.933268" xlink:href="#m89b6aff432" y="391.22"/>
      </g>
     </g>
     <g id="text_1">
      <!-- 0.0 -->
      <defs>
       <path d="M 31.78125 66.40625 
Q 24.171875 66.40625 20.328125 58.90625 
Q 16.5 51.421875 16.5 36.375 
Q 16.5 21.390625 20.328125 13.890625 
Q 24.171875 6.390625 31.78125 6.390625 
Q 39.453125 6.390625 43.28125 13.890625 
Q 47.125 21.390625 47.125 36.375 
Q 47.125 51.421875 43.28125 58.90625 
Q 39.453125 66.40625 31.78125 66.40625 
z
M 31.78125 74.21875 
Q 44.046875 74.21875 50.515625 64.515625 
Q 56.984375 54.828125 56.984375 36.375 
Q 56.984375 17.96875 50.515625 8.265625 
Q 44.046875 -1.421875 31.78125 -1.421875 
Q 19.53125 -1.421875 13.0625 8.265625 
Q 6.59375 17.96875 6.59375 36.375 
Q 6.59375 54.828125 13.0625 64.515625 
Q 19.53125 74.21875 31.78125 74.21875 
z
" id="DejaVuSans-48"/>
       <path d="M 10.6875 12.40625 
L 21 12.40625 
L 21 0 
L 10.6875 0 
z
" id="DejaVuSans-46"/>
      </defs>
      <g transform="translate(60.981705 405.818437)scale(0.1 -0.1)">
       <use xlink:href="#DejaVuSans-48"/>
       <use x="63.623047" xlink:href="#DejaVuSans-46"/>
       <use x="95.410156" xlink:href="#DejaVuSans-48"/>
      </g>
     </g>
    </g>
    <g id="xtick_2">
     <g id="line2d_3">
      <path clip-path="url(#p0b8b13e97e)" d="M 131.600732 391.22 
L 131.600732 10.7 
" style="fill:none;stroke:#b0b0b0;stroke-linecap:square;stroke-width:0.8;"/>
     </g>
     <g id="line2d_4">
      <g>
       <use style="stroke:#000000;stroke-width:0.8;" x="131.600732" xlink:href="#m89b6aff432" y="391.22"/>
      </g>
     </g>
     <g id="text_2">
      <!-- 2.5 -->
      <defs>
       <path d="M 19.1875 8.296875 
L 53.609375 8.296875 
L 53.609375 0 
L 7.328125 0 
L 7.328125 8.296875 
Q 12.9375 14.109375 22.625 23.890625 
Q 32.328125 33.6875 34.8125 36.53125 
Q 39.546875 41.84375 41.421875 45.53125 
Q 43.3125 49.21875 43.3125 52.78125 
Q 43.3125 58.59375 39.234375 62.25 
Q 35.15625 65.921875 28.609375 65.921875 
Q 23.96875 65.921875 18.8125 64.3125 
Q 13.671875 62.703125 7.8125 59.421875 
L 7.8125 69.390625 
Q 13.765625 71.78125 18.9375 73 
Q 24.125 74.21875 28.421875 74.21875 
Q 39.75 74.21875 46.484375 68.546875 
Q 53.21875 62.890625 53.21875 53.421875 
Q 53.21875 48.921875 51.53125 44.890625 
Q 49.859375 40.875 45.40625 35.40625 
Q 44.1875 33.984375 37.640625 27.21875 
Q 31.109375 20.453125 19.1875 8.296875 
z
" id="DejaVuSans-50"/>
       <path d="M 10.796875 72.90625 
L 49.515625 72.90625 
L 49.515625 64.59375 
L 19.828125 64.59375 
L 19.828125 46.734375 
Q 21.96875 47.46875 24.109375 47.828125 
Q 26.265625 48.1875 28.421875 48.1875 
Q 40.625 48.1875 47.75 41.5 
Q 54.890625 34.8125 54.890625 23.390625 
Q 54.890625 11.625 47.5625 5.09375 
Q 40.234375 -1.421875 26.90625 -1.421875 
Q 22.3125 -1.421875 17.546875 -0.640625 
Q 12.796875 0.140625 7.71875 1.703125 
L 7.71875 11.625 
Q 12.109375 9.234375 16.796875 8.0625 
Q 21.484375 6.890625 26.703125 6.890625 
Q 35.15625 6.890625 40.078125 11.328125 
Q 45.015625 15.765625 45.015625 23.390625 
Q 45.015625 31 40.078125 35.4375 
Q 35.15625 39.890625 26.703125 39.890625 
Q 22.75 39.890625 18.8125 39.015625 
Q 14.890625 38.140625 10.796875 36.28125 
z
" id="DejaVuSans-53"/>
      </defs>
      <g transform="translate(123.64917 405.818437)scale(0.1 -0.1)">
       <use xlink:href="#DejaVuSans-50"/>
       <use x="63.623047" xlink:href="#DejaVuSans-46"/>
       <use x="95.410156" xlink:href="#DejaVuSans-53"/>
      </g>
     </g>
    </g>
    <g id="xtick_3">
     <g id="line2d_5">
      <path clip-path="url(#p0b8b13e97e)" d="M 194.268196 391.22 
L 194.268196 10.7 
" style="fill:none;stroke:#b0b0b0;stroke-linecap:square;stroke-width:0.8;"/>
     </g>
     <g id="line2d_6">
      <g>
       <use style="stroke:#000000;stroke-width:0.8;" x="194.268196" xlink:href="#m89b6aff432" y="391.22"/>
      </g>
     </g>
     <g id="text_3">
      <!-- 5.0 -->
      <g transform="translate(186.316634 405.818437)scale(0.1 -0.1)">
       <use xlink:href="#DejaVuSans-53"/>
       <use x="63.623047" xlink:href="#DejaVuSans-46"/>
       <use x="95.410156" xlink:href="#DejaVuSans-48"/>
      </g>
     </g>
    </g>
    <g id="xtick_4">
     <g id="line2d_7">
      <path clip-path="url(#p0b8b13e97e)" d="M 256.935661 391.22 
L 256.935661 10.7 
" style="fill:none;stroke:#b0b0b0;stroke-linecap:square;stroke-width:0.8;"/>
     </g>
     <g id="line2d_8">
      <g>
       <use style="stroke:#000000;stroke-width:0.8;" x="256.935661" xlink:href="#m89b6aff432" y="391.22"/>
      </g>
     </g>
     <g id="text_4">
      <!-- 7.5 -->
      <defs>
       <path d="M 8.203125 72.90625 
L 55.078125 72.90625 
L 55.078125 68.703125 
L 28.609375 0 
L 18.3125 0 
L 43.21875 64.59375 
L 8.203125 64.59375 
z
" id="DejaVuSans-55"/>
      </defs>
      <g transform="translate(248.984098 405.818437)scale(0.1 -0.1)">
       <use xlink:href="#DejaVuSans-55"/>
       <use x="63.623047" xlink:href="#DejaVuSans-46"/>
       <use x="95.410156" xlink:href="#DejaVuSans-53"/>
      </g>
     </g>
    </g>
    <g id="xtick_5">
     <g id="line2d_9">
      <path clip-path="url(#p0b8b13e97e)" d="M 319.603125 391.22 
L 319.603125 10.7 
" style="fill:none;stroke:#b0b0b0;stroke-linecap:square;stroke-width:0.8;"/>
     </g>
     <g id="line2d_10">
      <g>
       <use style="stroke:#000000;stroke-width:0.8;" x="319.603125" xlink:href="#m89b6aff432" y="391.22"/>
      </g>
     </g>
     <g id="text_5">
      <!-- 10.0 -->
      <defs>
       <path d="M 12.40625 8.296875 
L 28.515625 8.296875 
L 28.515625 63.921875 
L 10.984375 60.40625 
L 10.984375 69.390625 
L 28.421875 72.90625 
L 38.28125 72.90625 
L 38.28125 8.296875 
L 54.390625 8.296875 
L 54.390625 0 
L 12.40625 0 
z
" id="DejaVuSans-49"/>
      </defs>
      <g transform="translate(308.470313 405.818437)scale(0.1 -0.1)">
       <use xlink:href="#DejaVuSans-49"/>
       <use x="63.623047" xlink:href="#DejaVuSans-48"/>
       <use x="127.246094" xlink:href="#DejaVuSans-46"/>
       <use x="159.033203" xlink:href="#DejaVuSans-48"/>
      </g>
     </g>
    </g>
    <g id="xtick_6">
     <g id="line2d_11">
      <path clip-path="url(#p0b8b13e97e)" d="M 382.270589 391.22 
L 382.270589 10.7 
" style="fill:none;stroke:#b0b0b0;stroke-linecap:square;stroke-width:0.8;"/>
     </g>
     <g id="line2d_12">
      <g>
       <use style="stroke:#000000;stroke-width:0.8;" x="382.270589" xlink:href="#m89b6aff432" y="391.22"/>
      </g>
     </g>
     <g id="text_6">
      <!-- 12.5 -->
      <g transform="translate(371.137777 405.818437)scale(0.1 -0.1)">
       <use xlink:href="#DejaVuSans-49"/>
       <use x="63.623047" xlink:href="#DejaVuSans-50"/>
       <use x="127.246094" xlink:href="#DejaVuSans-46"/>
       <use x="159.033203" xlink:href="#DejaVuSans-53"/>
      </g>
     </g>
    </g>
    <g id="xtick_7">
     <g id="line2d_13">
      <path clip-path="url(#p0b8b13e97e)" d="M 444.938054 391.22 
L 444.938054 10.7 
" style="fill:none;stroke:#b0b0b0;stroke-linecap:square;stroke-width:0.8;"/>
     </g>
     <g id="line2d_14">
      <g>
       <use style="stroke:#000000;stroke-width:0.8;" x="444.938054" xlink:href="#m89b6aff432" y="391.22"/>
      </g>
     </g>
     <g id="text_7">
      <!-- 15.0 -->
      <g transform="translate(433.805241 405.818437)scale(0.1 -0.1)">
       <use xlink:href="#DejaVuSans-49"/>
       <use x="63.623047" xlink:href="#DejaVuSans-53"/>
       <use x="127.246094" xlink:href="#DejaVuSans-46"/>
       <use x="159.033203" xlink:href="#DejaVuSans-48"/>
      </g>
     </g>
    </g>
    <g id="xtick_8">
     <g id="line2d_15">
      <path clip-path="url(#p0b8b13e97e)" d="M 507.605518 391.22 
L 507.605518 10.7 
" style="fill:none;stroke:#b0b0b0;stroke-linecap:square;stroke-width:0.8;"/>
     </g>
     <g id="line2d_16">
      <g>
       <use style="stroke:#000000;stroke-width:0.8;" x="507.605518" xlink:href="#m89b6aff432" y="391.22"/>
      </g>
     </g>
     <g id="text_8">
      <!-- 17.5 -->
      <g transform="translate(496.472705 405.818437)scale(0.1 -0.1)">
       <use xlink:href="#DejaVuSans-49"/>
       <use x="63.623047" xlink:href="#DejaVuSans-55"/>
       <use x="127.246094" xlink:href="#DejaVuSans-46"/>
       <use x="159.033203" xlink:href="#DejaVuSans-53"/>
      </g>
     </g>
    </g>
    <g id="xtick_9">
     <g id="line2d_17">
      <path clip-path="url(#p0b8b13e97e)" d="M 570.272982 391.22 
L 570.272982 10.7 
" style="fill:none;stroke:#b0b0b0;stroke-linecap:square;stroke-width:0.8;"/>
     </g>
     <g id="line2d_18">
      <g>
       <use style="stroke:#000000;stroke-width:0.8;" x="570.272982" xlink:href="#m89b6aff432" y="391.22"/>
      </g>
     </g>
     <g id="text_9">
      <!-- 20.0 -->
      <g transform="translate(559.14017 405.818437)scale(0.1 -0.1)">
       <use xlink:href="#DejaVuSans-50"/>
       <use x="63.623047" xlink:href="#DejaVuSans-48"/>
       <use x="127.246094" xlink:href="#DejaVuSans-46"/>
       <use x="159.033203" xlink:href="#DejaVuSans-48"/>
      </g>
     </g>
    </g>
    <g id="text_10">
     <!-- Time [min] -->
     <defs>
      <path d="M -0.296875 72.90625 
L 61.375 72.90625 
L 61.375 64.59375 
L 35.5 64.59375 
L 35.5 0 
L 25.59375 0 
L 25.59375 64.59375 
L -0.296875 64.59375 
z
" id="DejaVuSans-84"/>
      <path d="M 9.421875 54.6875 
L 18.40625 54.6875 
L 18.40625 0 
L 9.421875 0 
z
M 9.421875 75.984375 
L 18.40625 75.984375 
L 18.40625 64.59375 
L 9.421875 64.59375 
z
" id="DejaVuSans-105"/>
      <path d="M 52 44.1875 
Q 55.375 50.25 60.0625 53.125 
Q 64.75 56 71.09375 56 
Q 79.640625 56 84.28125 50.015625 
Q 88.921875 44.046875 88.921875 33.015625 
L 88.921875 0 
L 79.890625 0 
L 79.890625 32.71875 
Q 79.890625 40.578125 77.09375 44.375 
Q 74.3125 48.1875 68.609375 48.1875 
Q 61.625 48.1875 57.5625 43.546875 
Q 53.515625 38.921875 53.515625 30.90625 
L 53.515625 0 
L 44.484375 0 
L 44.484375 32.71875 
Q 44.484375 40.625 41.703125 44.40625 
Q 38.921875 48.1875 33.109375 48.1875 
Q 26.21875 48.1875 22.15625 43.53125 
Q 18.109375 38.875 18.109375 30.90625 
L 18.109375 0 
L 9.078125 0 
L 9.078125 54.6875 
L 18.109375 54.6875 
L 18.109375 46.1875 
Q 21.1875 51.21875 25.484375 53.609375 
Q 29.78125 56 35.6875 56 
Q 41.65625 56 45.828125 52.96875 
Q 50 49.953125 52 44.1875 
z
" id="DejaVuSans-109"/>
      <path d="M 56.203125 29.59375 
L 56.203125 25.203125 
L 14.890625 25.203125 
Q 15.484375 15.921875 20.484375 11.0625 
Q 25.484375 6.203125 34.421875 6.203125 
Q 39.59375 6.203125 44.453125 7.46875 
Q 49.3125 8.734375 54.109375 11.28125 
L 54.109375 2.78125 
Q 49.265625 0.734375 44.1875 -0.34375 
Q 39.109375 -1.421875 33.890625 -1.421875 
Q 20.796875 -1.421875 13.15625 6.1875 
Q 5.515625 13.8125 5.515625 26.8125 
Q 5.515625 40.234375 12.765625 48.109375 
Q 20.015625 56 32.328125 56 
Q 43.359375 56 49.78125 48.890625 
Q 56.203125 41.796875 56.203125 29.59375 
z
M 47.21875 32.234375 
Q 47.125 39.59375 43.09375 43.984375 
Q 39.0625 48.390625 32.421875 48.390625 
Q 24.90625 48.390625 20.390625 44.140625 
Q 15.875 39.890625 15.1875 32.171875 
z
" id="DejaVuSans-101"/>
      <path id="DejaVuSans-32"/>
      <path d="M 8.59375 75.984375 
L 29.296875 75.984375 
L 29.296875 69 
L 17.578125 69 
L 17.578125 -6.203125 
L 29.296875 -6.203125 
L 29.296875 -13.1875 
L 8.59375 -13.1875 
z
" id="DejaVuSans-91"/>
      <path d="M 54.890625 33.015625 
L 54.890625 0 
L 45.90625 0 
L 45.90625 32.71875 
Q 45.90625 40.484375 42.875 44.328125 
Q 39.84375 48.1875 33.796875 48.1875 
Q 26.515625 48.1875 22.3125 43.546875 
Q 18.109375 38.921875 18.109375 30.90625 
L 18.109375 0 
L 9.078125 0 
L 9.078125 54.6875 
L 18.109375 54.6875 
L 18.109375 46.1875 
Q 21.34375 51.125 25.703125 53.5625 
Q 30.078125 56 35.796875 56 
Q 45.21875 56 50.046875 50.171875 
Q 54.890625 44.34375 54.890625 33.015625 
z
" id="DejaVuSans-110"/>
      <path d="M 30.421875 75.984375 
L 30.421875 -13.1875 
L 9.71875 -13.1875 
L 9.71875 -6.203125 
L 21.390625 -6.203125 
L 21.390625 69 
L 9.71875 69 
L 9.71875 75.984375 
z
" id="DejaVuSans-93"/>
     </defs>
     <g transform="translate(292.296875 419.496562)scale(0.1 -0.1)">
      <use xlink:href="#DejaVuSans-84"/>
      <use x="61.037109" xlink:href="#DejaVuSans-105"/>
      <use x="88.820312" xlink:href="#DejaVuSans-109"/>
      <use x="186.232422" xlink:href="#DejaVuSans-101"/>
      <use x="247.755859" xlink:href="#DejaVuSans-32"/>
      <use x="279.542969" xlink:href="#DejaVuSans-91"/>
      <use x="318.556641" xlink:href="#DejaVuSans-109"/>
      <use x="415.96875" xlink:href="#DejaVuSans-105"/>
      <use x="443.751953" xlink:href="#DejaVuSans-110"/>
      <use x="507.130859" xlink:href="#DejaVuSans-93"/>
     </g>
    </g>
   </g>
   <g id="matplotlib.axis_2">
    <g id="ytick_1">
     <g id="line2d_19">
      <path clip-path="url(#p0b8b13e97e)" d="M 40.603125 374.363613 
L 598.603125 374.363613 
" style="fill:none;stroke:#b0b0b0;stroke-linecap:square;stroke-width:0.8;"/>
     </g>
     <g id="line2d_20">
      <defs>
       <path d="M 0 0 
L -3.5 0 
" id="m1615c93db5" style="stroke:#000000;stroke-width:0.8;"/>
      </defs>
      <g>
       <use style="stroke:#000000;stroke-width:0.8;" x="40.603125" xlink:href="#m1615c93db5" y="374.363613"/>
      </g>
     </g>
     <g id="text_11">
      <!-- 0 -->
      <g transform="translate(27.240625 378.162832)scale(0.1 -0.1)">
       <use xlink:href="#DejaVuSans-48"/>
      </g>
     </g>
    </g>
    <g id="ytick_2">
     <g id="line2d_21">
      <path clip-path="url(#p0b8b13e97e)" d="M 40.603125 308.422833 
L 598.603125 308.422833 
" style="fill:none;stroke:#b0b0b0;stroke-linecap:square;stroke-width:0.8;"/>
     </g>
     <g id="line2d_22">
      <g>
       <use style="stroke:#000000;stroke-width:0.8;" x="40.603125" xlink:href="#m1615c93db5" y="308.422833"/>
      </g>
     </g>
     <g id="text_12">
      <!-- 10 -->
      <g transform="translate(20.878125 312.222051)scale(0.1 -0.1)">
       <use xlink:href="#DejaVuSans-49"/>
       <use x="63.623047" xlink:href="#DejaVuSans-48"/>
      </g>
     </g>
    </g>
    <g id="ytick_3">
     <g id="line2d_23">
      <path clip-path="url(#p0b8b13e97e)" d="M 40.603125 242.482052 
L 598.603125 242.482052 
" style="fill:none;stroke:#b0b0b0;stroke-linecap:square;stroke-width:0.8;"/>
     </g>
     <g id="line2d_24">
      <g>
       <use style="stroke:#000000;stroke-width:0.8;" x="40.603125" xlink:href="#m1615c93db5" y="242.482052"/>
      </g>
     </g>
     <g id="text_13">
      <!-- 20 -->
      <g transform="translate(20.878125 246.281271)scale(0.1 -0.1)">
       <use xlink:href="#DejaVuSans-50"/>
       <use x="63.623047" xlink:href="#DejaVuSans-48"/>
      </g>
     </g>
    </g>
    <g id="ytick_4">
     <g id="line2d_25">
      <path clip-path="url(#p0b8b13e97e)" d="M 40.603125 176.541271 
L 598.603125 176.541271 
" style="fill:none;stroke:#b0b0b0;stroke-linecap:square;stroke-width:0.8;"/>
     </g>
     <g id="line2d_26">
      <g>
       <use style="stroke:#000000;stroke-width:0.8;" x="40.603125" xlink:href="#m1615c93db5" y="176.541271"/>
      </g>
     </g>
     <g id="text_14">
      <!-- 30 -->
      <defs>
       <path d="M 40.578125 39.3125 
Q 47.65625 37.796875 51.625 33 
Q 55.609375 28.21875 55.609375 21.1875 
Q 55.609375 10.40625 48.1875 4.484375 
Q 40.765625 -1.421875 27.09375 -1.421875 
Q 22.515625 -1.421875 17.65625 -0.515625 
Q 12.796875 0.390625 7.625 2.203125 
L 7.625 11.71875 
Q 11.71875 9.328125 16.59375 8.109375 
Q 21.484375 6.890625 26.8125 6.890625 
Q 36.078125 6.890625 40.9375 10.546875 
Q 45.796875 14.203125 45.796875 21.1875 
Q 45.796875 27.640625 41.28125 31.265625 
Q 36.765625 34.90625 28.71875 34.90625 
L 20.21875 34.90625 
L 20.21875 43.015625 
L 29.109375 43.015625 
Q 36.375 43.015625 40.234375 45.921875 
Q 44.09375 48.828125 44.09375 54.296875 
Q 44.09375 59.90625 40.109375 62.90625 
Q 36.140625 65.921875 28.71875 65.921875 
Q 24.65625 65.921875 20.015625 65.03125 
Q 15.375 64.15625 9.8125 62.3125 
L 9.8125 71.09375 
Q 15.4375 72.65625 20.34375 73.4375 
Q 25.25 74.21875 29.59375 74.21875 
Q 40.828125 74.21875 47.359375 69.109375 
Q 53.90625 64.015625 53.90625 55.328125 
Q 53.90625 49.265625 50.4375 45.09375 
Q 46.96875 40.921875 40.578125 39.3125 
z
" id="DejaVuSans-51"/>
      </defs>
      <g transform="translate(20.878125 180.34049)scale(0.1 -0.1)">
       <use xlink:href="#DejaVuSans-51"/>
       <use x="63.623047" xlink:href="#DejaVuSans-48"/>
      </g>
     </g>
    </g>
    <g id="ytick_5">
     <g id="line2d_27">
      <path clip-path="url(#p0b8b13e97e)" d="M 40.603125 110.600491 
L 598.603125 110.600491 
" style="fill:none;stroke:#b0b0b0;stroke-linecap:square;stroke-width:0.8;"/>
     </g>
     <g id="line2d_28">
      <g>
       <use style="stroke:#000000;stroke-width:0.8;" x="40.603125" xlink:href="#m1615c93db5" y="110.600491"/>
      </g>
     </g>
     <g id="text_15">
      <!-- 40 -->
      <defs>
       <path d="M 37.796875 64.3125 
L 12.890625 25.390625 
L 37.796875 25.390625 
z
M 35.203125 72.90625 
L 47.609375 72.90625 
L 47.609375 25.390625 
L 58.015625 25.390625 
L 58.015625 17.1875 
L 47.609375 17.1875 
L 47.609375 0 
L 37.796875 0 
L 37.796875 17.1875 
L 4.890625 17.1875 
L 4.890625 26.703125 
z
" id="DejaVuSans-52"/>
      </defs>
      <g transform="translate(20.878125 114.399709)scale(0.1 -0.1)">
       <use xlink:href="#DejaVuSans-52"/>
       <use x="63.623047" xlink:href="#DejaVuSans-48"/>
      </g>
     </g>
    </g>
    <g id="ytick_6">
     <g id="line2d_29">
      <path clip-path="url(#p0b8b13e97e)" d="M 40.603125 44.65971 
L 598.603125 44.65971 
" style="fill:none;stroke:#b0b0b0;stroke-linecap:square;stroke-width:0.8;"/>
     </g>
     <g id="line2d_30">
      <g>
       <use style="stroke:#000000;stroke-width:0.8;" x="40.603125" xlink:href="#m1615c93db5" y="44.65971"/>
      </g>
     </g>
     <g id="text_16">
      <!-- 50 -->
      <g transform="translate(20.878125 48.458929)scale(0.1 -0.1)">
       <use xlink:href="#DejaVuSans-53"/>
       <use x="63.623047" xlink:href="#DejaVuSans-48"/>
      </g>
     </g>
    </g>
    <g id="text_17">
     <!-- Error in the State Estimate [MW] -->
     <defs>
      <path d="M 9.8125 72.90625 
L 55.90625 72.90625 
L 55.90625 64.59375 
L 19.671875 64.59375 
L 19.671875 43.015625 
L 54.390625 43.015625 
L 54.390625 34.71875 
L 19.671875 34.71875 
L 19.671875 8.296875 
L 56.78125 8.296875 
L 56.78125 0 
L 9.8125 0 
z
" id="DejaVuSans-69"/>
      <path d="M 41.109375 46.296875 
Q 39.59375 47.171875 37.8125 47.578125 
Q 36.03125 48 33.890625 48 
Q 26.265625 48 22.1875 43.046875 
Q 18.109375 38.09375 18.109375 28.8125 
L 18.109375 0 
L 9.078125 0 
L 9.078125 54.6875 
L 18.109375 54.6875 
L 18.109375 46.1875 
Q 20.953125 51.171875 25.484375 53.578125 
Q 30.03125 56 36.53125 56 
Q 37.453125 56 38.578125 55.875 
Q 39.703125 55.765625 41.0625 55.515625 
z
" id="DejaVuSans-114"/>
      <path d="M 30.609375 48.390625 
Q 23.390625 48.390625 19.1875 42.75 
Q 14.984375 37.109375 14.984375 27.296875 
Q 14.984375 17.484375 19.15625 11.84375 
Q 23.34375 6.203125 30.609375 6.203125 
Q 37.796875 6.203125 41.984375 11.859375 
Q 46.1875 17.53125 46.1875 27.296875 
Q 46.1875 37.015625 41.984375 42.703125 
Q 37.796875 48.390625 30.609375 48.390625 
z
M 30.609375 56 
Q 42.328125 56 49.015625 48.375 
Q 55.71875 40.765625 55.71875 27.296875 
Q 55.71875 13.875 49.015625 6.21875 
Q 42.328125 -1.421875 30.609375 -1.421875 
Q 18.84375 -1.421875 12.171875 6.21875 
Q 5.515625 13.875 5.515625 27.296875 
Q 5.515625 40.765625 12.171875 48.375 
Q 18.84375 56 30.609375 56 
z
" id="DejaVuSans-111"/>
      <path d="M 18.3125 70.21875 
L 18.3125 54.6875 
L 36.8125 54.6875 
L 36.8125 47.703125 
L 18.3125 47.703125 
L 18.3125 18.015625 
Q 18.3125 11.328125 20.140625 9.421875 
Q 21.96875 7.515625 27.59375 7.515625 
L 36.8125 7.515625 
L 36.8125 0 
L 27.59375 0 
Q 17.1875 0 13.234375 3.875 
Q 9.28125 7.765625 9.28125 18.015625 
L 9.28125 47.703125 
L 2.6875 47.703125 
L 2.6875 54.6875 
L 9.28125 54.6875 
L 9.28125 70.21875 
z
" id="DejaVuSans-116"/>
      <path d="M 54.890625 33.015625 
L 54.890625 0 
L 45.90625 0 
L 45.90625 32.71875 
Q 45.90625 40.484375 42.875 44.328125 
Q 39.84375 48.1875 33.796875 48.1875 
Q 26.515625 48.1875 22.3125 43.546875 
Q 18.109375 38.921875 18.109375 30.90625 
L 18.109375 0 
L 9.078125 0 
L 9.078125 75.984375 
L 18.109375 75.984375 
L 18.109375 46.1875 
Q 21.34375 51.125 25.703125 53.5625 
Q 30.078125 56 35.796875 56 
Q 45.21875 56 50.046875 50.171875 
Q 54.890625 44.34375 54.890625 33.015625 
z
" id="DejaVuSans-104"/>
      <path d="M 53.515625 70.515625 
L 53.515625 60.890625 
Q 47.90625 63.578125 42.921875 64.890625 
Q 37.9375 66.21875 33.296875 66.21875 
Q 25.25 66.21875 20.875 63.09375 
Q 16.5 59.96875 16.5 54.203125 
Q 16.5 49.359375 19.40625 46.890625 
Q 22.3125 44.4375 30.421875 42.921875 
L 36.375 41.703125 
Q 47.40625 39.59375 52.65625 34.296875 
Q 57.90625 29 57.90625 20.125 
Q 57.90625 9.515625 50.796875 4.046875 
Q 43.703125 -1.421875 29.984375 -1.421875 
Q 24.8125 -1.421875 18.96875 -0.25 
Q 13.140625 0.921875 6.890625 3.21875 
L 6.890625 13.375 
Q 12.890625 10.015625 18.65625 8.296875 
Q 24.421875 6.59375 29.984375 6.59375 
Q 38.421875 6.59375 43.015625 9.90625 
Q 47.609375 13.234375 47.609375 19.390625 
Q 47.609375 24.75 44.3125 27.78125 
Q 41.015625 30.8125 33.5 32.328125 
L 27.484375 33.5 
Q 16.453125 35.6875 11.515625 40.375 
Q 6.59375 45.0625 6.59375 53.421875 
Q 6.59375 63.09375 13.40625 68.65625 
Q 20.21875 74.21875 32.171875 74.21875 
Q 37.3125 74.21875 42.625 73.28125 
Q 47.953125 72.359375 53.515625 70.515625 
z
" id="DejaVuSans-83"/>
      <path d="M 34.28125 27.484375 
Q 23.390625 27.484375 19.1875 25 
Q 14.984375 22.515625 14.984375 16.5 
Q 14.984375 11.71875 18.140625 8.90625 
Q 21.296875 6.109375 26.703125 6.109375 
Q 34.1875 6.109375 38.703125 11.40625 
Q 43.21875 16.703125 43.21875 25.484375 
L 43.21875 27.484375 
z
M 52.203125 31.203125 
L 52.203125 0 
L 43.21875 0 
L 43.21875 8.296875 
Q 40.140625 3.328125 35.546875 0.953125 
Q 30.953125 -1.421875 24.3125 -1.421875 
Q 15.921875 -1.421875 10.953125 3.296875 
Q 6 8.015625 6 15.921875 
Q 6 25.140625 12.171875 29.828125 
Q 18.359375 34.515625 30.609375 34.515625 
L 43.21875 34.515625 
L 43.21875 35.40625 
Q 43.21875 41.609375 39.140625 45 
Q 35.0625 48.390625 27.6875 48.390625 
Q 23 48.390625 18.546875 47.265625 
Q 14.109375 46.140625 10.015625 43.890625 
L 10.015625 52.203125 
Q 14.9375 54.109375 19.578125 55.046875 
Q 24.21875 56 28.609375 56 
Q 40.484375 56 46.34375 49.84375 
Q 52.203125 43.703125 52.203125 31.203125 
z
" id="DejaVuSans-97"/>
      <path d="M 44.28125 53.078125 
L 44.28125 44.578125 
Q 40.484375 46.53125 36.375 47.5 
Q 32.28125 48.484375 27.875 48.484375 
Q 21.1875 48.484375 17.84375 46.4375 
Q 14.5 44.390625 14.5 40.28125 
Q 14.5 37.15625 16.890625 35.375 
Q 19.28125 33.59375 26.515625 31.984375 
L 29.59375 31.296875 
Q 39.15625 29.25 43.1875 25.515625 
Q 47.21875 21.78125 47.21875 15.09375 
Q 47.21875 7.46875 41.1875 3.015625 
Q 35.15625 -1.421875 24.609375 -1.421875 
Q 20.21875 -1.421875 15.453125 -0.5625 
Q 10.6875 0.296875 5.421875 2 
L 5.421875 11.28125 
Q 10.40625 8.6875 15.234375 7.390625 
Q 20.0625 6.109375 24.8125 6.109375 
Q 31.15625 6.109375 34.5625 8.28125 
Q 37.984375 10.453125 37.984375 14.40625 
Q 37.984375 18.0625 35.515625 20.015625 
Q 33.0625 21.96875 24.703125 23.78125 
L 21.578125 24.515625 
Q 13.234375 26.265625 9.515625 29.90625 
Q 5.8125 33.546875 5.8125 39.890625 
Q 5.8125 47.609375 11.28125 51.796875 
Q 16.75 56 26.8125 56 
Q 31.78125 56 36.171875 55.265625 
Q 40.578125 54.546875 44.28125 53.078125 
z
" id="DejaVuSans-115"/>
      <path d="M 9.8125 72.90625 
L 24.515625 72.90625 
L 43.109375 23.296875 
L 61.8125 72.90625 
L 76.515625 72.90625 
L 76.515625 0 
L 66.890625 0 
L 66.890625 64.015625 
L 48.09375 14.015625 
L 38.1875 14.015625 
L 19.390625 64.015625 
L 19.390625 0 
L 9.8125 0 
z
" id="DejaVuSans-77"/>
      <path d="M 3.328125 72.90625 
L 13.28125 72.90625 
L 28.609375 11.28125 
L 43.890625 72.90625 
L 54.984375 72.90625 
L 70.3125 11.28125 
L 85.59375 72.90625 
L 95.609375 72.90625 
L 77.296875 0 
L 64.890625 0 
L 49.515625 63.28125 
L 33.984375 0 
L 21.578125 0 
z
" id="DejaVuSans-87"/>
     </defs>
     <g transform="translate(14.798437 282.530312)rotate(-90)scale(0.1 -0.1)">
      <use xlink:href="#DejaVuSans-69"/>
      <use x="63.183594" xlink:href="#DejaVuSans-114"/>
      <use x="104.28125" xlink:href="#DejaVuSans-114"/>
      <use x="145.363281" xlink:href="#DejaVuSans-111"/>
      <use x="206.544922" xlink:href="#DejaVuSans-114"/>
      <use x="247.658203" xlink:href="#DejaVuSans-32"/>
      <use x="279.445312" xlink:href="#DejaVuSans-105"/>
      <use x="307.228516" xlink:href="#DejaVuSans-110"/>
      <use x="370.607422" xlink:href="#DejaVuSans-32"/>
      <use x="402.394531" xlink:href="#DejaVuSans-116"/>
      <use x="441.603516" xlink:href="#DejaVuSans-104"/>
      <use x="504.982422" xlink:href="#DejaVuSans-101"/>
      <use x="566.505859" xlink:href="#DejaVuSans-32"/>
      <use x="598.292969" xlink:href="#DejaVuSans-83"/>
      <use x="661.769531" xlink:href="#DejaVuSans-116"/>
      <use x="700.978516" xlink:href="#DejaVuSans-97"/>
      <use x="762.257812" xlink:href="#DejaVuSans-116"/>
      <use x="801.466797" xlink:href="#DejaVuSans-101"/>
      <use x="862.990234" xlink:href="#DejaVuSans-32"/>
      <use x="894.777344" xlink:href="#DejaVuSans-69"/>
      <use x="957.960938" xlink:href="#DejaVuSans-115"/>
      <use x="1010.060547" xlink:href="#DejaVuSans-116"/>
      <use x="1049.269531" xlink:href="#DejaVuSans-105"/>
      <use x="1077.052734" xlink:href="#DejaVuSans-109"/>
      <use x="1174.464844" xlink:href="#DejaVuSans-97"/>
      <use x="1235.744141" xlink:href="#DejaVuSans-116"/>
      <use x="1274.953125" xlink:href="#DejaVuSans-101"/>
      <use x="1336.476562" xlink:href="#DejaVuSans-32"/>
      <use x="1368.263672" xlink:href="#DejaVuSans-91"/>
      <use x="1407.277344" xlink:href="#DejaVuSans-77"/>
      <use x="1493.556641" xlink:href="#DejaVuSans-87"/>
      <use x="1592.433594" xlink:href="#DejaVuSans-93"/>
     </g>
    </g>
   </g>
   <g id="patch_3">
    <path d="M 40.603125 391.22 
L 40.603125 10.7 
" style="fill:none;stroke:#000000;stroke-linecap:square;stroke-linejoin:miter;stroke-width:0.8;"/>
   </g>
   <g id="patch_4">
    <path d="M 598.603125 391.22 
L 598.603125 10.7 
" style="fill:none;stroke:#000000;stroke-linecap:square;stroke-linejoin:miter;stroke-width:0.8;"/>
   </g>
   <g id="patch_5">
    <path d="M 40.603125 391.22 
L 598.603125 391.22 
" style="fill:none;stroke:#000000;stroke-linecap:square;stroke-linejoin:miter;stroke-width:0.8;"/>
   </g>
   <g id="patch_6">
    <path d="M 40.603125 10.7 
L 598.603125 10.7 
" style="fill:none;stroke:#000000;stroke-linecap:square;stroke-linejoin:miter;stroke-width:0.8;"/>
   </g>
   <g id="legend_1">
    <g id="patch_7">
     <path d="M 587.603125 23.7 
L 591.603125 23.7 
Q 593.603125 23.7 593.603125 21.7 
L 593.603125 17.7 
Q 593.603125 15.7 591.603125 15.7 
L 587.603125 15.7 
Q 585.603125 15.7 585.603125 17.7 
L 585.603125 21.7 
Q 585.603125 23.7 587.603125 23.7 
z
" style="fill:#ffffff;opacity:0.8;stroke:#cccccc;stroke-linejoin:miter;"/>
    </g>
   </g>
  </g>
 </g>
 <defs>
  <clipPath id="p0b8b13e97e">
   <rect height="380.52" width="558" x="40.603125" y="10.7"/>
  </clipPath>
 </defs>
</svg>
