<?xml version="1.0" encoding="utf-8" standalone="no"?>
<!DOCTYPE svg PUBLIC "-//W3C//DTD SVG 1.1//EN"
  "http://www.w3.org/Graphics/SVG/1.1/DTD/svg11.dtd">
<!-- Created with matplotlib (https://matplotlib.org/) -->
<svg height="428.77625pt" version="1.1" viewBox="0 0 615.665625 428.77625" width="615.665625pt" xmlns="http://www.w3.org/2000/svg" xmlns:xlink="http://www.w3.org/1999/xlink">
 <defs>
  <style type="text/css">
*{stroke-linecap:butt;stroke-linejoin:round;}
  </style>
 </defs>
 <g id="figure_1">
  <g id="patch_1">
   <path d="M 0 428.77625 
L 615.665625 428.77625 
L 615.665625 0 
L 0 0 
z
" style="fill:#ffffff;"/>
  </g>
  <g id="axes_1">
   <g id="patch_2">
    <path d="M 46.965625 391.22 
L 604.965625 391.22 
L 604.965625 10.7 
L 46.965625 10.7 
z
" style="fill:#ffffff;"/>
   </g>
   <g id="PathCollection_1">
    <defs>
     <path d="M 0 3 
C 0.795609 3 1.55874 2.683901 2.12132 2.12132 
C 2.683901 1.55874 3 0.795609 3 0 
C 3 -0.795609 2.683901 -1.55874 2.12132 -2.12132 
C 1.55874 -2.683901 0.795609 -3 0 -3 
C -0.795609 -3 -1.55874 -2.683901 -2.12132 -2.12132 
C -2.683901 -1.55874 -3 -0.795609 -3 0 
C -3 0.795609 -2.683901 1.55874 -2.12132 2.12132 
C -1.55874 2.683901 -0.795609 3 0 3 
z
" id="m0f3dde0093" style="stroke:#1f77b4;"/>
    </defs>
    <g clip-path="url(#pf75b3dc252)">
     <use style="fill:#1f77b4;stroke:#1f77b4;" x="75.295768" xlink:href="#m0f3dde0093" y="369.835114"/>
     <use style="fill:#1f77b4;stroke:#1f77b4;" x="81.562514" xlink:href="#m0f3dde0093" y="364.62886"/>
     <use style="fill:#1f77b4;stroke:#1f77b4;" x="87.829261" xlink:href="#m0f3dde0093" y="364.945773"/>
     <use style="fill:#1f77b4;stroke:#1f77b4;" x="94.096007" xlink:href="#m0f3dde0093" y="364.927431"/>
     <use style="fill:#1f77b4;stroke:#1f77b4;" x="100.362753" xlink:href="#m0f3dde0093" y="364.864052"/>
     <use style="fill:#1f77b4;stroke:#1f77b4;" x="106.6295" xlink:href="#m0f3dde0093" y="364.852153"/>
     <use style="fill:#1f77b4;stroke:#1f77b4;" x="112.896246" xlink:href="#m0f3dde0093" y="364.909207"/>
     <use style="fill:#1f77b4;stroke:#1f77b4;" x="119.162993" xlink:href="#m0f3dde0093" y="365.029907"/>
     <use style="fill:#1f77b4;stroke:#1f77b4;" x="125.429739" xlink:href="#m0f3dde0093" y="365.203553"/>
     <use style="fill:#1f77b4;stroke:#1f77b4;" x="131.696486" xlink:href="#m0f3dde0093" y="365.419236"/>
     <use style="fill:#1f77b4;stroke:#1f77b4;" x="137.963232" xlink:href="#m0f3dde0093" y="365.667289"/>
     <use style="fill:#1f77b4;stroke:#1f77b4;" x="144.229978" xlink:href="#m0f3dde0093" y="365.939547"/>
     <use style="fill:#1f77b4;stroke:#1f77b4;" x="150.496725" xlink:href="#m0f3dde0093" y="366.229265"/>
     <use style="fill:#1f77b4;stroke:#1f77b4;" x="156.763471" xlink:href="#m0f3dde0093" y="366.530914"/>
     <use style="fill:#1f77b4;stroke:#1f77b4;" x="163.030218" xlink:href="#m0f3dde0093" y="366.839993"/>
     <use style="fill:#1f77b4;stroke:#1f77b4;" x="169.296964" xlink:href="#m0f3dde0093" y="367.15284"/>
     <use style="fill:#1f77b4;stroke:#1f77b4;" x="175.563711" xlink:href="#m0f3dde0093" y="367.466489"/>
     <use style="fill:#1f77b4;stroke:#1f77b4;" x="181.830457" xlink:href="#m0f3dde0093" y="367.778541"/>
     <use style="fill:#1f77b4;stroke:#1f77b4;" x="188.097203" xlink:href="#m0f3dde0093" y="368.087062"/>
     <use style="fill:#1f77b4;stroke:#1f77b4;" x="194.36395" xlink:href="#m0f3dde0093" y="368.390502"/>
     <use style="fill:#1f77b4;stroke:#1f77b4;" x="200.630696" xlink:href="#m0f3dde0093" y="368.687625"/>
     <use style="fill:#1f77b4;stroke:#1f77b4;" x="206.897443" xlink:href="#m0f3dde0093" y="368.977458"/>
     <use style="fill:#1f77b4;stroke:#1f77b4;" x="213.164189" xlink:href="#m0f3dde0093" y="369.259244"/>
     <use style="fill:#1f77b4;stroke:#1f77b4;" x="219.430936" xlink:href="#m0f3dde0093" y="369.532404"/>
     <use style="fill:#1f77b4;stroke:#1f77b4;" x="225.697682" xlink:href="#m0f3dde0093" y="369.796511"/>
     <use style="fill:#1f77b4;stroke:#1f77b4;" x="231.964429" xlink:href="#m0f3dde0093" y="370.051262"/>
     <use style="fill:#1f77b4;stroke:#1f77b4;" x="238.231175" xlink:href="#m0f3dde0093" y="367.899778"/>
     <use style="fill:#1f77b4;stroke:#1f77b4;" x="244.497921" xlink:href="#m0f3dde0093" y="372.087545"/>
     <use style="fill:#1f77b4;stroke:#1f77b4;" x="250.764668" xlink:href="#m0f3dde0093" y="373.099451"/>
     <use style="fill:#1f77b4;stroke:#1f77b4;" x="257.031414" xlink:href="#m0f3dde0093" y="373.299069"/>
     <use style="fill:#1f77b4;stroke:#1f77b4;" x="263.298161" xlink:href="#m0f3dde0093" y="370.344832"/>
     <use style="fill:#1f77b4;stroke:#1f77b4;" x="269.564907" xlink:href="#m0f3dde0093" y="373.918409"/>
     <use style="fill:#1f77b4;stroke:#1f77b4;" x="275.831654" xlink:href="#m0f3dde0093" y="372.735022"/>
     <use style="fill:#1f77b4;stroke:#1f77b4;" x="282.0984" xlink:href="#m0f3dde0093" y="372.768277"/>
     <use style="fill:#1f77b4;stroke:#1f77b4;" x="288.365146" xlink:href="#m0f3dde0093" y="368.804513"/>
     <use style="fill:#1f77b4;stroke:#1f77b4;" x="294.631893" xlink:href="#m0f3dde0093" y="371.724052"/>
     <use style="fill:#1f77b4;stroke:#1f77b4;" x="300.898639" xlink:href="#m0f3dde0093" y="365.315518"/>
     <use style="fill:#1f77b4;stroke:#1f77b4;" x="307.165386" xlink:href="#m0f3dde0093" y="365.449686"/>
     <use style="fill:#1f77b4;stroke:#1f77b4;" x="313.432132" xlink:href="#m0f3dde0093" y="363.627204"/>
     <use style="fill:#1f77b4;stroke:#1f77b4;" x="319.698879" xlink:href="#m0f3dde0093" y="364.379145"/>
     <use style="fill:#1f77b4;stroke:#1f77b4;" x="325.965625" xlink:href="#m0f3dde0093" y="363.32575"/>
     <use style="fill:#1f77b4;stroke:#1f77b4;" x="332.232371" xlink:href="#m0f3dde0093" y="363.543515"/>
     <use style="fill:#1f77b4;stroke:#1f77b4;" x="338.499118" xlink:href="#m0f3dde0093" y="362.727268"/>
     <use style="fill:#1f77b4;stroke:#1f77b4;" x="344.765864" xlink:href="#m0f3dde0093" y="362.808069"/>
     <use style="fill:#1f77b4;stroke:#1f77b4;" x="351.032611" xlink:href="#m0f3dde0093" y="361.64887"/>
     <use style="fill:#1f77b4;stroke:#1f77b4;" x="357.299357" xlink:href="#m0f3dde0093" y="362.33944"/>
     <use style="fill:#1f77b4;stroke:#1f77b4;" x="363.566104" xlink:href="#m0f3dde0093" y="361.908571"/>
     <use style="fill:#1f77b4;stroke:#1f77b4;" x="369.83285" xlink:href="#m0f3dde0093" y="361.818322"/>
     <use style="fill:#1f77b4;stroke:#1f77b4;" x="376.099596" xlink:href="#m0f3dde0093" y="360.474853"/>
     <use style="fill:#1f77b4;stroke:#1f77b4;" x="382.366343" xlink:href="#m0f3dde0093" y="357.308038"/>
     <use style="fill:#1f77b4;stroke:#1f77b4;" x="388.633089" xlink:href="#m0f3dde0093" y="327.674054"/>
     <use style="fill:#1f77b4;stroke:#1f77b4;" x="394.899836" xlink:href="#m0f3dde0093" y="299.198153"/>
     <use style="fill:#1f77b4;stroke:#1f77b4;" x="401.166582" xlink:href="#m0f3dde0093" y="271.145679"/>
     <use style="fill:#1f77b4;stroke:#1f77b4;" x="407.433329" xlink:href="#m0f3dde0093" y="240.285861"/>
     <use style="fill:#1f77b4;stroke:#1f77b4;" x="413.700075" xlink:href="#m0f3dde0093" y="210.147095"/>
     <use style="fill:#1f77b4;stroke:#1f77b4;" x="419.966821" xlink:href="#m0f3dde0093" y="182.317636"/>
     <use style="fill:#1f77b4;stroke:#1f77b4;" x="426.233568" xlink:href="#m0f3dde0093" y="153.114313"/>
     <use style="fill:#1f77b4;stroke:#1f77b4;" x="432.500314" xlink:href="#m0f3dde0093" y="122.691373"/>
     <use style="fill:#1f77b4;stroke:#1f77b4;" x="438.767061" xlink:href="#m0f3dde0093" y="91.448438"/>
     <use style="fill:#1f77b4;stroke:#1f77b4;" x="445.033807" xlink:href="#m0f3dde0093" y="63.340978"/>
     <use style="fill:#1f77b4;stroke:#1f77b4;" x="451.300554" xlink:href="#m0f3dde0093" y="33.926064"/>
     <use style="fill:#1f77b4;stroke:#1f77b4;" x="457.5673" xlink:href="#m0f3dde0093" y="32.782043"/>
     <use style="fill:#1f77b4;stroke:#1f77b4;" x="463.834047" xlink:href="#m0f3dde0093" y="32.245986"/>
     <use style="fill:#1f77b4;stroke:#1f77b4;" x="470.100793" xlink:href="#m0f3dde0093" y="31.819085"/>
     <use style="fill:#1f77b4;stroke:#1f77b4;" x="476.367539" xlink:href="#m0f3dde0093" y="31.444905"/>
     <use style="fill:#1f77b4;stroke:#1f77b4;" x="482.634286" xlink:href="#m0f3dde0093" y="31.107674"/>
     <use style="fill:#1f77b4;stroke:#1f77b4;" x="488.901032" xlink:href="#m0f3dde0093" y="30.799077"/>
     <use style="fill:#1f77b4;stroke:#1f77b4;" x="495.167779" xlink:href="#m0f3dde0093" y="30.513757"/>
     <use style="fill:#1f77b4;stroke:#1f77b4;" x="501.434525" xlink:href="#m0f3dde0093" y="30.247986"/>
     <use style="fill:#1f77b4;stroke:#1f77b4;" x="507.701272" xlink:href="#m0f3dde0093" y="29.999048"/>
     <use style="fill:#1f77b4;stroke:#1f77b4;" x="513.968018" xlink:href="#m0f3dde0093" y="29.764896"/>
     <use style="fill:#1f77b4;stroke:#1f77b4;" x="520.234764" xlink:href="#m0f3dde0093" y="29.543954"/>
     <use style="fill:#1f77b4;stroke:#1f77b4;" x="526.501511" xlink:href="#m0f3dde0093" y="29.334975"/>
     <use style="fill:#1f77b4;stroke:#1f77b4;" x="532.768257" xlink:href="#m0f3dde0093" y="29.136956"/>
     <use style="fill:#1f77b4;stroke:#1f77b4;" x="539.035004" xlink:href="#m0f3dde0093" y="28.949072"/>
     <use style="fill:#1f77b4;stroke:#1f77b4;" x="545.30175" xlink:href="#m0f3dde0093" y="28.770629"/>
     <use style="fill:#1f77b4;stroke:#1f77b4;" x="551.568497" xlink:href="#m0f3dde0093" y="28.601036"/>
     <use style="fill:#1f77b4;stroke:#1f77b4;" x="557.835243" xlink:href="#m0f3dde0093" y="28.439773"/>
     <use style="fill:#1f77b4;stroke:#1f77b4;" x="564.101989" xlink:href="#m0f3dde0093" y="28.286381"/>
     <use style="fill:#1f77b4;stroke:#1f77b4;" x="570.368736" xlink:href="#m0f3dde0093" y="28.140447"/>
     <use style="fill:#1f77b4;stroke:#1f77b4;" x="576.635482" xlink:href="#m0f3dde0093" y="28.001591"/>
    </g>
   </g>
   <g id="PathCollection_2">
    <defs>
     <path d="M 0 3 
C 0.795609 3 1.55874 2.683901 2.12132 2.12132 
C 2.683901 1.55874 3 0.795609 3 0 
C 3 -0.795609 2.683901 -1.55874 2.12132 -2.12132 
C 1.55874 -2.683901 0.795609 -3 0 -3 
C -0.795609 -3 -1.55874 -2.683901 -2.12132 -2.12132 
C -2.683901 -1.55874 -3 -0.795609 -3 0 
C -3 0.795609 -2.683901 1.55874 -2.12132 2.12132 
C -1.55874 2.683901 -0.795609 3 0 3 
z
" id="mfdf2039d7d" style="stroke:#ff7f0e;"/>
    </defs>
    <g clip-path="url(#pf75b3dc252)">
     <use style="fill:#ff7f0e;stroke:#ff7f0e;" x="75.295768" xlink:href="#mfdf2039d7d" y="344.830516"/>
     <use style="fill:#ff7f0e;stroke:#ff7f0e;" x="81.562514" xlink:href="#mfdf2039d7d" y="347.226345"/>
     <use style="fill:#ff7f0e;stroke:#ff7f0e;" x="87.829261" xlink:href="#mfdf2039d7d" y="348.844738"/>
     <use style="fill:#ff7f0e;stroke:#ff7f0e;" x="94.096007" xlink:href="#mfdf2039d7d" y="350.521634"/>
     <use style="fill:#ff7f0e;stroke:#ff7f0e;" x="100.362753" xlink:href="#mfdf2039d7d" y="352.141873"/>
     <use style="fill:#ff7f0e;stroke:#ff7f0e;" x="106.6295" xlink:href="#mfdf2039d7d" y="353.653288"/>
     <use style="fill:#ff7f0e;stroke:#ff7f0e;" x="112.896246" xlink:href="#mfdf2039d7d" y="355.036924"/>
     <use style="fill:#ff7f0e;stroke:#ff7f0e;" x="119.162993" xlink:href="#mfdf2039d7d" y="356.291756"/>
     <use style="fill:#ff7f0e;stroke:#ff7f0e;" x="125.429739" xlink:href="#mfdf2039d7d" y="357.425305"/>
     <use style="fill:#ff7f0e;stroke:#ff7f0e;" x="131.696486" xlink:href="#mfdf2039d7d" y="358.448452"/>
     <use style="fill:#ff7f0e;stroke:#ff7f0e;" x="137.963232" xlink:href="#mfdf2039d7d" y="359.372798"/>
     <use style="fill:#ff7f0e;stroke:#ff7f0e;" x="144.229978" xlink:href="#mfdf2039d7d" y="360.209449"/>
     <use style="fill:#ff7f0e;stroke:#ff7f0e;" x="150.496725" xlink:href="#mfdf2039d7d" y="360.968521"/>
     <use style="fill:#ff7f0e;stroke:#ff7f0e;" x="156.763471" xlink:href="#mfdf2039d7d" y="361.659007"/>
     <use style="fill:#ff7f0e;stroke:#ff7f0e;" x="163.030218" xlink:href="#mfdf2039d7d" y="362.288799"/>
     <use style="fill:#ff7f0e;stroke:#ff7f0e;" x="169.296964" xlink:href="#mfdf2039d7d" y="362.864787"/>
     <use style="fill:#ff7f0e;stroke:#ff7f0e;" x="175.563711" xlink:href="#mfdf2039d7d" y="363.392968"/>
     <use style="fill:#ff7f0e;stroke:#ff7f0e;" x="181.830457" xlink:href="#mfdf2039d7d" y="363.878561"/>
     <use style="fill:#ff7f0e;stroke:#ff7f0e;" x="188.097203" xlink:href="#mfdf2039d7d" y="364.326112"/>
     <use style="fill:#ff7f0e;stroke:#ff7f0e;" x="194.36395" xlink:href="#mfdf2039d7d" y="364.739587"/>
     <use style="fill:#ff7f0e;stroke:#ff7f0e;" x="200.630696" xlink:href="#mfdf2039d7d" y="365.122452"/>
     <use style="fill:#ff7f0e;stroke:#ff7f0e;" x="206.897443" xlink:href="#mfdf2039d7d" y="365.477745"/>
     <use style="fill:#ff7f0e;stroke:#ff7f0e;" x="213.164189" xlink:href="#mfdf2039d7d" y="365.808134"/>
     <use style="fill:#ff7f0e;stroke:#ff7f0e;" x="219.430936" xlink:href="#mfdf2039d7d" y="366.115969"/>
     <use style="fill:#ff7f0e;stroke:#ff7f0e;" x="225.697682" xlink:href="#mfdf2039d7d" y="366.403323"/>
     <use style="fill:#ff7f0e;stroke:#ff7f0e;" x="231.964429" xlink:href="#mfdf2039d7d" y="366.672035"/>
     <use style="fill:#ff7f0e;stroke:#ff7f0e;" x="238.231175" xlink:href="#mfdf2039d7d" y="365.348694"/>
     <use style="fill:#ff7f0e;stroke:#ff7f0e;" x="244.497921" xlink:href="#mfdf2039d7d" y="365.122272"/>
     <use style="fill:#ff7f0e;stroke:#ff7f0e;" x="250.764668" xlink:href="#mfdf2039d7d" y="365.06995"/>
     <use style="fill:#ff7f0e;stroke:#ff7f0e;" x="257.031414" xlink:href="#mfdf2039d7d" y="364.909344"/>
     <use style="fill:#ff7f0e;stroke:#ff7f0e;" x="263.298161" xlink:href="#mfdf2039d7d" y="364.768308"/>
     <use style="fill:#ff7f0e;stroke:#ff7f0e;" x="269.564907" xlink:href="#mfdf2039d7d" y="365.267448"/>
     <use style="fill:#ff7f0e;stroke:#ff7f0e;" x="275.831654" xlink:href="#mfdf2039d7d" y="365.114576"/>
     <use style="fill:#ff7f0e;stroke:#ff7f0e;" x="282.0984" xlink:href="#mfdf2039d7d" y="364.912213"/>
     <use style="fill:#ff7f0e;stroke:#ff7f0e;" x="288.365146" xlink:href="#mfdf2039d7d" y="365.022177"/>
     <use style="fill:#ff7f0e;stroke:#ff7f0e;" x="294.631893" xlink:href="#mfdf2039d7d" y="365.049053"/>
     <use style="fill:#ff7f0e;stroke:#ff7f0e;" x="300.898639" xlink:href="#mfdf2039d7d" y="365.67785"/>
     <use style="fill:#ff7f0e;stroke:#ff7f0e;" x="307.165386" xlink:href="#mfdf2039d7d" y="366.428759"/>
     <use style="fill:#ff7f0e;stroke:#ff7f0e;" x="313.432132" xlink:href="#mfdf2039d7d" y="365.759549"/>
     <use style="fill:#ff7f0e;stroke:#ff7f0e;" x="319.698879" xlink:href="#mfdf2039d7d" y="367.027722"/>
     <use style="fill:#ff7f0e;stroke:#ff7f0e;" x="325.965625" xlink:href="#mfdf2039d7d" y="367.245832"/>
     <use style="fill:#ff7f0e;stroke:#ff7f0e;" x="332.232371" xlink:href="#mfdf2039d7d" y="367.65851"/>
     <use style="fill:#ff7f0e;stroke:#ff7f0e;" x="338.499118" xlink:href="#mfdf2039d7d" y="366.720159"/>
     <use style="fill:#ff7f0e;stroke:#ff7f0e;" x="344.765864" xlink:href="#mfdf2039d7d" y="367.453858"/>
     <use style="fill:#ff7f0e;stroke:#ff7f0e;" x="351.032611" xlink:href="#mfdf2039d7d" y="367.403085"/>
     <use style="fill:#ff7f0e;stroke:#ff7f0e;" x="357.299357" xlink:href="#mfdf2039d7d" y="367.440338"/>
     <use style="fill:#ff7f0e;stroke:#ff7f0e;" x="363.566104" xlink:href="#mfdf2039d7d" y="366.468254"/>
     <use style="fill:#ff7f0e;stroke:#ff7f0e;" x="369.83285" xlink:href="#mfdf2039d7d" y="366.993292"/>
     <use style="fill:#ff7f0e;stroke:#ff7f0e;" x="376.099596" xlink:href="#mfdf2039d7d" y="366.742219"/>
     <use style="fill:#ff7f0e;stroke:#ff7f0e;" x="382.366343" xlink:href="#mfdf2039d7d" y="355.858262"/>
     <use style="fill:#ff7f0e;stroke:#ff7f0e;" x="388.633089" xlink:href="#mfdf2039d7d" y="330.975903"/>
     <use style="fill:#ff7f0e;stroke:#ff7f0e;" x="394.899836" xlink:href="#mfdf2039d7d" y="305.042235"/>
     <use style="fill:#ff7f0e;stroke:#ff7f0e;" x="401.166582" xlink:href="#mfdf2039d7d" y="279.786803"/>
     <use style="fill:#ff7f0e;stroke:#ff7f0e;" x="407.433329" xlink:href="#mfdf2039d7d" y="254.121354"/>
     <use style="fill:#ff7f0e;stroke:#ff7f0e;" x="413.700075" xlink:href="#mfdf2039d7d" y="229.209434"/>
     <use style="fill:#ff7f0e;stroke:#ff7f0e;" x="419.966821" xlink:href="#mfdf2039d7d" y="203.547737"/>
     <use style="fill:#ff7f0e;stroke:#ff7f0e;" x="426.233568" xlink:href="#mfdf2039d7d" y="178.142713"/>
     <use style="fill:#ff7f0e;stroke:#ff7f0e;" x="432.500314" xlink:href="#mfdf2039d7d" y="152.652192"/>
     <use style="fill:#ff7f0e;stroke:#ff7f0e;" x="438.767061" xlink:href="#mfdf2039d7d" y="127.630986"/>
     <use style="fill:#ff7f0e;stroke:#ff7f0e;" x="445.033807" xlink:href="#mfdf2039d7d" y="101.959244"/>
     <use style="fill:#ff7f0e;stroke:#ff7f0e;" x="451.300554" xlink:href="#mfdf2039d7d" y="76.528537"/>
     <use style="fill:#ff7f0e;stroke:#ff7f0e;" x="457.5673" xlink:href="#mfdf2039d7d" y="75.702074"/>
     <use style="fill:#ff7f0e;stroke:#ff7f0e;" x="463.834047" xlink:href="#mfdf2039d7d" y="75.241802"/>
     <use style="fill:#ff7f0e;stroke:#ff7f0e;" x="470.100793" xlink:href="#mfdf2039d7d" y="74.952556"/>
     <use style="fill:#ff7f0e;stroke:#ff7f0e;" x="476.367539" xlink:href="#mfdf2039d7d" y="74.751227"/>
     <use style="fill:#ff7f0e;stroke:#ff7f0e;" x="482.634286" xlink:href="#mfdf2039d7d" y="74.595295"/>
     <use style="fill:#ff7f0e;stroke:#ff7f0e;" x="488.901032" xlink:href="#mfdf2039d7d" y="74.462878"/>
     <use style="fill:#ff7f0e;stroke:#ff7f0e;" x="495.167779" xlink:href="#mfdf2039d7d" y="74.342828"/>
     <use style="fill:#ff7f0e;stroke:#ff7f0e;" x="501.434525" xlink:href="#mfdf2039d7d" y="74.2295"/>
     <use style="fill:#ff7f0e;stroke:#ff7f0e;" x="507.701272" xlink:href="#mfdf2039d7d" y="74.120028"/>
     <use style="fill:#ff7f0e;stroke:#ff7f0e;" x="513.968018" xlink:href="#mfdf2039d7d" y="74.012951"/>
     <use style="fill:#ff7f0e;stroke:#ff7f0e;" x="520.234764" xlink:href="#mfdf2039d7d" y="73.907516"/>
     <use style="fill:#ff7f0e;stroke:#ff7f0e;" x="526.501511" xlink:href="#mfdf2039d7d" y="73.803334"/>
     <use style="fill:#ff7f0e;stroke:#ff7f0e;" x="532.768257" xlink:href="#mfdf2039d7d" y="73.700201"/>
     <use style="fill:#ff7f0e;stroke:#ff7f0e;" x="539.035004" xlink:href="#mfdf2039d7d" y="73.598014"/>
     <use style="fill:#ff7f0e;stroke:#ff7f0e;" x="545.30175" xlink:href="#mfdf2039d7d" y="73.496722"/>
     <use style="fill:#ff7f0e;stroke:#ff7f0e;" x="551.568497" xlink:href="#mfdf2039d7d" y="73.396305"/>
     <use style="fill:#ff7f0e;stroke:#ff7f0e;" x="557.835243" xlink:href="#mfdf2039d7d" y="73.296758"/>
     <use style="fill:#ff7f0e;stroke:#ff7f0e;" x="564.101989" xlink:href="#mfdf2039d7d" y="73.198086"/>
     <use style="fill:#ff7f0e;stroke:#ff7f0e;" x="570.368736" xlink:href="#mfdf2039d7d" y="73.100298"/>
     <use style="fill:#ff7f0e;stroke:#ff7f0e;" x="576.635482" xlink:href="#mfdf2039d7d" y="73.003409"/>
    </g>
   </g>
   <g id="matplotlib.axis_1">
    <g id="xtick_1">
     <g id="line2d_1">
      <path clip-path="url(#pf75b3dc252)" d="M 75.295768 391.22 
L 75.295768 10.7 
" style="fill:none;stroke:#b0b0b0;stroke-linecap:square;stroke-width:0.8;"/>
     </g>
     <g id="line2d_2">
      <defs>
       <path d="M 0 0 
L 0 3.5 
" id="m1ec0c7887a" style="stroke:#000000;stroke-width:0.8;"/>
      </defs>
      <g>
       <use style="stroke:#000000;stroke-width:0.8;" x="75.295768" xlink:href="#m1ec0c7887a" y="391.22"/>
      </g>
     </g>
     <g id="text_1">
      <!-- 0.0 -->
      <defs>
       <path d="M 31.78125 66.40625 
Q 24.171875 66.40625 20.328125 58.90625 
Q 16.5 51.421875 16.5 36.375 
Q 16.5 21.390625 20.328125 13.890625 
Q 24.171875 6.390625 31.78125 6.390625 
Q 39.453125 6.390625 43.28125 13.890625 
Q 47.125 21.390625 47.125 36.375 
Q 47.125 51.421875 43.28125 58.90625 
Q 39.453125 66.40625 31.78125 66.40625 
z
M 31.78125 74.21875 
Q 44.046875 74.21875 50.515625 64.515625 
Q 56.984375 54.828125 56.984375 36.375 
Q 56.984375 17.96875 50.515625 8.265625 
Q 44.046875 -1.421875 31.78125 -1.421875 
Q 19.53125 -1.421875 13.0625 8.265625 
Q 6.59375 17.96875 6.59375 36.375 
Q 6.59375 54.828125 13.0625 64.515625 
Q 19.53125 74.21875 31.78125 74.21875 
z
" id="DejaVuSans-48"/>
       <path d="M 10.6875 12.40625 
L 21 12.40625 
L 21 0 
L 10.6875 0 
z
" id="DejaVuSans-46"/>
      </defs>
      <g transform="translate(67.344205 405.818437)scale(0.1 -0.1)">
       <use xlink:href="#DejaVuSans-48"/>
       <use x="63.623047" xlink:href="#DejaVuSans-46"/>
       <use x="95.410156" xlink:href="#DejaVuSans-48"/>
      </g>
     </g>
    </g>
    <g id="xtick_2">
     <g id="line2d_3">
      <path clip-path="url(#pf75b3dc252)" d="M 137.963232 391.22 
L 137.963232 10.7 
" style="fill:none;stroke:#b0b0b0;stroke-linecap:square;stroke-width:0.8;"/>
     </g>
     <g id="line2d_4">
      <g>
       <use style="stroke:#000000;stroke-width:0.8;" x="137.963232" xlink:href="#m1ec0c7887a" y="391.22"/>
      </g>
     </g>
     <g id="text_2">
      <!-- 2.5 -->
      <defs>
       <path d="M 19.1875 8.296875 
L 53.609375 8.296875 
L 53.609375 0 
L 7.328125 0 
L 7.328125 8.296875 
Q 12.9375 14.109375 22.625 23.890625 
Q 32.328125 33.6875 34.8125 36.53125 
Q 39.546875 41.84375 41.421875 45.53125 
Q 43.3125 49.21875 43.3125 52.78125 
Q 43.3125 58.59375 39.234375 62.25 
Q 35.15625 65.921875 28.609375 65.921875 
Q 23.96875 65.921875 18.8125 64.3125 
Q 13.671875 62.703125 7.8125 59.421875 
L 7.8125 69.390625 
Q 13.765625 71.78125 18.9375 73 
Q 24.125 74.21875 28.421875 74.21875 
Q 39.75 74.21875 46.484375 68.546875 
Q 53.21875 62.890625 53.21875 53.421875 
Q 53.21875 48.921875 51.53125 44.890625 
Q 49.859375 40.875 45.40625 35.40625 
Q 44.1875 33.984375 37.640625 27.21875 
Q 31.109375 20.453125 19.1875 8.296875 
z
" id="DejaVuSans-50"/>
       <path d="M 10.796875 72.90625 
L 49.515625 72.90625 
L 49.515625 64.59375 
L 19.828125 64.59375 
L 19.828125 46.734375 
Q 21.96875 47.46875 24.109375 47.828125 
Q 26.265625 48.1875 28.421875 48.1875 
Q 40.625 48.1875 47.75 41.5 
Q 54.890625 34.8125 54.890625 23.390625 
Q 54.890625 11.625 47.5625 5.09375 
Q 40.234375 -1.421875 26.90625 -1.421875 
Q 22.3125 -1.421875 17.546875 -0.640625 
Q 12.796875 0.140625 7.71875 1.703125 
L 7.71875 11.625 
Q 12.109375 9.234375 16.796875 8.0625 
Q 21.484375 6.890625 26.703125 6.890625 
Q 35.15625 6.890625 40.078125 11.328125 
Q 45.015625 15.765625 45.015625 23.390625 
Q 45.015625 31 40.078125 35.4375 
Q 35.15625 39.890625 26.703125 39.890625 
Q 22.75 39.890625 18.8125 39.015625 
Q 14.890625 38.140625 10.796875 36.28125 
z
" id="DejaVuSans-53"/>
      </defs>
      <g transform="translate(130.01167 405.818437)scale(0.1 -0.1)">
       <use xlink:href="#DejaVuSans-50"/>
       <use x="63.623047" xlink:href="#DejaVuSans-46"/>
       <use x="95.410156" xlink:href="#DejaVuSans-53"/>
      </g>
     </g>
    </g>
    <g id="xtick_3">
     <g id="line2d_5">
      <path clip-path="url(#pf75b3dc252)" d="M 200.630696 391.22 
L 200.630696 10.7 
" style="fill:none;stroke:#b0b0b0;stroke-linecap:square;stroke-width:0.8;"/>
     </g>
     <g id="line2d_6">
      <g>
       <use style="stroke:#000000;stroke-width:0.8;" x="200.630696" xlink:href="#m1ec0c7887a" y="391.22"/>
      </g>
     </g>
     <g id="text_3">
      <!-- 5.0 -->
      <g transform="translate(192.679134 405.818437)scale(0.1 -0.1)">
       <use xlink:href="#DejaVuSans-53"/>
       <use x="63.623047" xlink:href="#DejaVuSans-46"/>
       <use x="95.410156" xlink:href="#DejaVuSans-48"/>
      </g>
     </g>
    </g>
    <g id="xtick_4">
     <g id="line2d_7">
      <path clip-path="url(#pf75b3dc252)" d="M 263.298161 391.22 
L 263.298161 10.7 
" style="fill:none;stroke:#b0b0b0;stroke-linecap:square;stroke-width:0.8;"/>
     </g>
     <g id="line2d_8">
      <g>
       <use style="stroke:#000000;stroke-width:0.8;" x="263.298161" xlink:href="#m1ec0c7887a" y="391.22"/>
      </g>
     </g>
     <g id="text_4">
      <!-- 7.5 -->
      <defs>
       <path d="M 8.203125 72.90625 
L 55.078125 72.90625 
L 55.078125 68.703125 
L 28.609375 0 
L 18.3125 0 
L 43.21875 64.59375 
L 8.203125 64.59375 
z
" id="DejaVuSans-55"/>
      </defs>
      <g transform="translate(255.346598 405.818437)scale(0.1 -0.1)">
       <use xlink:href="#DejaVuSans-55"/>
       <use x="63.623047" xlink:href="#DejaVuSans-46"/>
       <use x="95.410156" xlink:href="#DejaVuSans-53"/>
      </g>
     </g>
    </g>
    <g id="xtick_5">
     <g id="line2d_9">
      <path clip-path="url(#pf75b3dc252)" d="M 325.965625 391.22 
L 325.965625 10.7 
" style="fill:none;stroke:#b0b0b0;stroke-linecap:square;stroke-width:0.8;"/>
     </g>
     <g id="line2d_10">
      <g>
       <use style="stroke:#000000;stroke-width:0.8;" x="325.965625" xlink:href="#m1ec0c7887a" y="391.22"/>
      </g>
     </g>
     <g id="text_5">
      <!-- 10.0 -->
      <defs>
       <path d="M 12.40625 8.296875 
L 28.515625 8.296875 
L 28.515625 63.921875 
L 10.984375 60.40625 
L 10.984375 69.390625 
L 28.421875 72.90625 
L 38.28125 72.90625 
L 38.28125 8.296875 
L 54.390625 8.296875 
L 54.390625 0 
L 12.40625 0 
z
" id="DejaVuSans-49"/>
      </defs>
      <g transform="translate(314.832813 405.818437)scale(0.1 -0.1)">
       <use xlink:href="#DejaVuSans-49"/>
       <use x="63.623047" xlink:href="#DejaVuSans-48"/>
       <use x="127.246094" xlink:href="#DejaVuSans-46"/>
       <use x="159.033203" xlink:href="#DejaVuSans-48"/>
      </g>
     </g>
    </g>
    <g id="xtick_6">
     <g id="line2d_11">
      <path clip-path="url(#pf75b3dc252)" d="M 388.633089 391.22 
L 388.633089 10.7 
" style="fill:none;stroke:#b0b0b0;stroke-linecap:square;stroke-width:0.8;"/>
     </g>
     <g id="line2d_12">
      <g>
       <use style="stroke:#000000;stroke-width:0.8;" x="388.633089" xlink:href="#m1ec0c7887a" y="391.22"/>
      </g>
     </g>
     <g id="text_6">
      <!-- 12.5 -->
      <g transform="translate(377.500277 405.818437)scale(0.1 -0.1)">
       <use xlink:href="#DejaVuSans-49"/>
       <use x="63.623047" xlink:href="#DejaVuSans-50"/>
       <use x="127.246094" xlink:href="#DejaVuSans-46"/>
       <use x="159.033203" xlink:href="#DejaVuSans-53"/>
      </g>
     </g>
    </g>
    <g id="xtick_7">
     <g id="line2d_13">
      <path clip-path="url(#pf75b3dc252)" d="M 451.300554 391.22 
L 451.300554 10.7 
" style="fill:none;stroke:#b0b0b0;stroke-linecap:square;stroke-width:0.8;"/>
     </g>
     <g id="line2d_14">
      <g>
       <use style="stroke:#000000;stroke-width:0.8;" x="451.300554" xlink:href="#m1ec0c7887a" y="391.22"/>
      </g>
     </g>
     <g id="text_7">
      <!-- 15.0 -->
      <g transform="translate(440.167741 405.818437)scale(0.1 -0.1)">
       <use xlink:href="#DejaVuSans-49"/>
       <use x="63.623047" xlink:href="#DejaVuSans-53"/>
       <use x="127.246094" xlink:href="#DejaVuSans-46"/>
       <use x="159.033203" xlink:href="#DejaVuSans-48"/>
      </g>
     </g>
    </g>
    <g id="xtick_8">
     <g id="line2d_15">
      <path clip-path="url(#pf75b3dc252)" d="M 513.968018 391.22 
L 513.968018 10.7 
" style="fill:none;stroke:#b0b0b0;stroke-linecap:square;stroke-width:0.8;"/>
     </g>
     <g id="line2d_16">
      <g>
       <use style="stroke:#000000;stroke-width:0.8;" x="513.968018" xlink:href="#m1ec0c7887a" y="391.22"/>
      </g>
     </g>
     <g id="text_8">
      <!-- 17.5 -->
      <g transform="translate(502.835205 405.818437)scale(0.1 -0.1)">
       <use xlink:href="#DejaVuSans-49"/>
       <use x="63.623047" xlink:href="#DejaVuSans-55"/>
       <use x="127.246094" xlink:href="#DejaVuSans-46"/>
       <use x="159.033203" xlink:href="#DejaVuSans-53"/>
      </g>
     </g>
    </g>
    <g id="xtick_9">
     <g id="line2d_17">
      <path clip-path="url(#pf75b3dc252)" d="M 576.635482 391.22 
L 576.635482 10.7 
" style="fill:none;stroke:#b0b0b0;stroke-linecap:square;stroke-width:0.8;"/>
     </g>
     <g id="line2d_18">
      <g>
       <use style="stroke:#000000;stroke-width:0.8;" x="576.635482" xlink:href="#m1ec0c7887a" y="391.22"/>
      </g>
     </g>
     <g id="text_9">
      <!-- 20.0 -->
      <g transform="translate(565.50267 405.818437)scale(0.1 -0.1)">
       <use xlink:href="#DejaVuSans-50"/>
       <use x="63.623047" xlink:href="#DejaVuSans-48"/>
       <use x="127.246094" xlink:href="#DejaVuSans-46"/>
       <use x="159.033203" xlink:href="#DejaVuSans-48"/>
      </g>
     </g>
    </g>
    <g id="text_10">
     <!-- Time [min] -->
     <defs>
      <path d="M -0.296875 72.90625 
L 61.375 72.90625 
L 61.375 64.59375 
L 35.5 64.59375 
L 35.5 0 
L 25.59375 0 
L 25.59375 64.59375 
L -0.296875 64.59375 
z
" id="DejaVuSans-84"/>
      <path d="M 9.421875 54.6875 
L 18.40625 54.6875 
L 18.40625 0 
L 9.421875 0 
z
M 9.421875 75.984375 
L 18.40625 75.984375 
L 18.40625 64.59375 
L 9.421875 64.59375 
z
" id="DejaVuSans-105"/>
      <path d="M 52 44.1875 
Q 55.375 50.25 60.0625 53.125 
Q 64.75 56 71.09375 56 
Q 79.640625 56 84.28125 50.015625 
Q 88.921875 44.046875 88.921875 33.015625 
L 88.921875 0 
L 79.890625 0 
L 79.890625 32.71875 
Q 79.890625 40.578125 77.09375 44.375 
Q 74.3125 48.1875 68.609375 48.1875 
Q 61.625 48.1875 57.5625 43.546875 
Q 53.515625 38.921875 53.515625 30.90625 
L 53.515625 0 
L 44.484375 0 
L 44.484375 32.71875 
Q 44.484375 40.625 41.703125 44.40625 
Q 38.921875 48.1875 33.109375 48.1875 
Q 26.21875 48.1875 22.15625 43.53125 
Q 18.109375 38.875 18.109375 30.90625 
L 18.109375 0 
L 9.078125 0 
L 9.078125 54.6875 
L 18.109375 54.6875 
L 18.109375 46.1875 
Q 21.1875 51.21875 25.484375 53.609375 
Q 29.78125 56 35.6875 56 
Q 41.65625 56 45.828125 52.96875 
Q 50 49.953125 52 44.1875 
z
" id="DejaVuSans-109"/>
      <path d="M 56.203125 29.59375 
L 56.203125 25.203125 
L 14.890625 25.203125 
Q 15.484375 15.921875 20.484375 11.0625 
Q 25.484375 6.203125 34.421875 6.203125 
Q 39.59375 6.203125 44.453125 7.46875 
Q 49.3125 8.734375 54.109375 11.28125 
L 54.109375 2.78125 
Q 49.265625 0.734375 44.1875 -0.34375 
Q 39.109375 -1.421875 33.890625 -1.421875 
Q 20.796875 -1.421875 13.15625 6.1875 
Q 5.515625 13.8125 5.515625 26.8125 
Q 5.515625 40.234375 12.765625 48.109375 
Q 20.015625 56 32.328125 56 
Q 43.359375 56 49.78125 48.890625 
Q 56.203125 41.796875 56.203125 29.59375 
z
M 47.21875 32.234375 
Q 47.125 39.59375 43.09375 43.984375 
Q 39.0625 48.390625 32.421875 48.390625 
Q 24.90625 48.390625 20.390625 44.140625 
Q 15.875 39.890625 15.1875 32.171875 
z
" id="DejaVuSans-101"/>
      <path id="DejaVuSans-32"/>
      <path d="M 8.59375 75.984375 
L 29.296875 75.984375 
L 29.296875 69 
L 17.578125 69 
L 17.578125 -6.203125 
L 29.296875 -6.203125 
L 29.296875 -13.1875 
L 8.59375 -13.1875 
z
" id="DejaVuSans-91"/>
      <path d="M 54.890625 33.015625 
L 54.890625 0 
L 45.90625 0 
L 45.90625 32.71875 
Q 45.90625 40.484375 42.875 44.328125 
Q 39.84375 48.1875 33.796875 48.1875 
Q 26.515625 48.1875 22.3125 43.546875 
Q 18.109375 38.921875 18.109375 30.90625 
L 18.109375 0 
L 9.078125 0 
L 9.078125 54.6875 
L 18.109375 54.6875 
L 18.109375 46.1875 
Q 21.34375 51.125 25.703125 53.5625 
Q 30.078125 56 35.796875 56 
Q 45.21875 56 50.046875 50.171875 
Q 54.890625 44.34375 54.890625 33.015625 
z
" id="DejaVuSans-110"/>
      <path d="M 30.421875 75.984375 
L 30.421875 -13.1875 
L 9.71875 -13.1875 
L 9.71875 -6.203125 
L 21.390625 -6.203125 
L 21.390625 69 
L 9.71875 69 
L 9.71875 75.984375 
z
" id="DejaVuSans-93"/>
     </defs>
     <g transform="translate(298.659375 419.496562)scale(0.1 -0.1)">
      <use xlink:href="#DejaVuSans-84"/>
      <use x="61.037109" xlink:href="#DejaVuSans-105"/>
      <use x="88.820312" xlink:href="#DejaVuSans-109"/>
      <use x="186.232422" xlink:href="#DejaVuSans-101"/>
      <use x="247.755859" xlink:href="#DejaVuSans-32"/>
      <use x="279.542969" xlink:href="#DejaVuSans-91"/>
      <use x="318.556641" xlink:href="#DejaVuSans-109"/>
      <use x="415.96875" xlink:href="#DejaVuSans-105"/>
      <use x="443.751953" xlink:href="#DejaVuSans-110"/>
      <use x="507.130859" xlink:href="#DejaVuSans-93"/>
     </g>
    </g>
   </g>
   <g id="matplotlib.axis_2">
    <g id="ytick_1">
     <g id="line2d_19">
      <path clip-path="url(#pf75b3dc252)" d="M 46.965625 374.17821 
L 604.965625 374.17821 
" style="fill:none;stroke:#b0b0b0;stroke-linecap:square;stroke-width:0.8;"/>
     </g>
     <g id="line2d_20">
      <defs>
       <path d="M 0 0 
L -3.5 0 
" id="m8094006de8" style="stroke:#000000;stroke-width:0.8;"/>
      </defs>
      <g>
       <use style="stroke:#000000;stroke-width:0.8;" x="46.965625" xlink:href="#m8094006de8" y="374.17821"/>
      </g>
     </g>
     <g id="text_11">
      <!-- 0 -->
      <g transform="translate(33.603125 377.977429)scale(0.1 -0.1)">
       <use xlink:href="#DejaVuSans-48"/>
      </g>
     </g>
    </g>
    <g id="ytick_2">
     <g id="line2d_21">
      <path clip-path="url(#pf75b3dc252)" d="M 46.965625 307.869107 
L 604.965625 307.869107 
" style="fill:none;stroke:#b0b0b0;stroke-linecap:square;stroke-width:0.8;"/>
     </g>
     <g id="line2d_22">
      <g>
       <use style="stroke:#000000;stroke-width:0.8;" x="46.965625" xlink:href="#m8094006de8" y="307.869107"/>
      </g>
     </g>
     <g id="text_12">
      <!-- 100 -->
      <g transform="translate(20.878125 311.668326)scale(0.1 -0.1)">
       <use xlink:href="#DejaVuSans-49"/>
       <use x="63.623047" xlink:href="#DejaVuSans-48"/>
       <use x="127.246094" xlink:href="#DejaVuSans-48"/>
      </g>
     </g>
    </g>
    <g id="ytick_3">
     <g id="line2d_23">
      <path clip-path="url(#pf75b3dc252)" d="M 46.965625 241.560004 
L 604.965625 241.560004 
" style="fill:none;stroke:#b0b0b0;stroke-linecap:square;stroke-width:0.8;"/>
     </g>
     <g id="line2d_24">
      <g>
       <use style="stroke:#000000;stroke-width:0.8;" x="46.965625" xlink:href="#m8094006de8" y="241.560004"/>
      </g>
     </g>
     <g id="text_13">
      <!-- 200 -->
      <g transform="translate(20.878125 245.359222)scale(0.1 -0.1)">
       <use xlink:href="#DejaVuSans-50"/>
       <use x="63.623047" xlink:href="#DejaVuSans-48"/>
       <use x="127.246094" xlink:href="#DejaVuSans-48"/>
      </g>
     </g>
    </g>
    <g id="ytick_4">
     <g id="line2d_25">
      <path clip-path="url(#pf75b3dc252)" d="M 46.965625 175.2509 
L 604.965625 175.2509 
" style="fill:none;stroke:#b0b0b0;stroke-linecap:square;stroke-width:0.8;"/>
     </g>
     <g id="line2d_26">
      <g>
       <use style="stroke:#000000;stroke-width:0.8;" x="46.965625" xlink:href="#m8094006de8" y="175.2509"/>
      </g>
     </g>
     <g id="text_14">
      <!-- 300 -->
      <defs>
       <path d="M 40.578125 39.3125 
Q 47.65625 37.796875 51.625 33 
Q 55.609375 28.21875 55.609375 21.1875 
Q 55.609375 10.40625 48.1875 4.484375 
Q 40.765625 -1.421875 27.09375 -1.421875 
Q 22.515625 -1.421875 17.65625 -0.515625 
Q 12.796875 0.390625 7.625 2.203125 
L 7.625 11.71875 
Q 11.71875 9.328125 16.59375 8.109375 
Q 21.484375 6.890625 26.8125 6.890625 
Q 36.078125 6.890625 40.9375 10.546875 
Q 45.796875 14.203125 45.796875 21.1875 
Q 45.796875 27.640625 41.28125 31.265625 
Q 36.765625 34.90625 28.71875 34.90625 
L 20.21875 34.90625 
L 20.21875 43.015625 
L 29.109375 43.015625 
Q 36.375 43.015625 40.234375 45.921875 
Q 44.09375 48.828125 44.09375 54.296875 
Q 44.09375 59.90625 40.109375 62.90625 
Q 36.140625 65.921875 28.71875 65.921875 
Q 24.65625 65.921875 20.015625 65.03125 
Q 15.375 64.15625 9.8125 62.3125 
L 9.8125 71.09375 
Q 15.4375 72.65625 20.34375 73.4375 
Q 25.25 74.21875 29.59375 74.21875 
Q 40.828125 74.21875 47.359375 69.109375 
Q 53.90625 64.015625 53.90625 55.328125 
Q 53.90625 49.265625 50.4375 45.09375 
Q 46.96875 40.921875 40.578125 39.3125 
z
" id="DejaVuSans-51"/>
      </defs>
      <g transform="translate(20.878125 179.050119)scale(0.1 -0.1)">
       <use xlink:href="#DejaVuSans-51"/>
       <use x="63.623047" xlink:href="#DejaVuSans-48"/>
       <use x="127.246094" xlink:href="#DejaVuSans-48"/>
      </g>
     </g>
    </g>
    <g id="ytick_5">
     <g id="line2d_27">
      <path clip-path="url(#pf75b3dc252)" d="M 46.965625 108.941797 
L 604.965625 108.941797 
" style="fill:none;stroke:#b0b0b0;stroke-linecap:square;stroke-width:0.8;"/>
     </g>
     <g id="line2d_28">
      <g>
       <use style="stroke:#000000;stroke-width:0.8;" x="46.965625" xlink:href="#m8094006de8" y="108.941797"/>
      </g>
     </g>
     <g id="text_15">
      <!-- 400 -->
      <defs>
       <path d="M 37.796875 64.3125 
L 12.890625 25.390625 
L 37.796875 25.390625 
z
M 35.203125 72.90625 
L 47.609375 72.90625 
L 47.609375 25.390625 
L 58.015625 25.390625 
L 58.015625 17.1875 
L 47.609375 17.1875 
L 47.609375 0 
L 37.796875 0 
L 37.796875 17.1875 
L 4.890625 17.1875 
L 4.890625 26.703125 
z
" id="DejaVuSans-52"/>
      </defs>
      <g transform="translate(20.878125 112.741016)scale(0.1 -0.1)">
       <use xlink:href="#DejaVuSans-52"/>
       <use x="63.623047" xlink:href="#DejaVuSans-48"/>
       <use x="127.246094" xlink:href="#DejaVuSans-48"/>
      </g>
     </g>
    </g>
    <g id="ytick_6">
     <g id="line2d_29">
      <path clip-path="url(#pf75b3dc252)" d="M 46.965625 42.632693 
L 604.965625 42.632693 
" style="fill:none;stroke:#b0b0b0;stroke-linecap:square;stroke-width:0.8;"/>
     </g>
     <g id="line2d_30">
      <g>
       <use style="stroke:#000000;stroke-width:0.8;" x="46.965625" xlink:href="#m8094006de8" y="42.632693"/>
      </g>
     </g>
     <g id="text_16">
      <!-- 500 -->
      <g transform="translate(20.878125 46.431912)scale(0.1 -0.1)">
       <use xlink:href="#DejaVuSans-53"/>
       <use x="63.623047" xlink:href="#DejaVuSans-48"/>
       <use x="127.246094" xlink:href="#DejaVuSans-48"/>
      </g>
     </g>
    </g>
    <g id="text_17">
     <!-- Error in the State Estiamte [MW] -->
     <defs>
      <path d="M 9.8125 72.90625 
L 55.90625 72.90625 
L 55.90625 64.59375 
L 19.671875 64.59375 
L 19.671875 43.015625 
L 54.390625 43.015625 
L 54.390625 34.71875 
L 19.671875 34.71875 
L 19.671875 8.296875 
L 56.78125 8.296875 
L 56.78125 0 
L 9.8125 0 
z
" id="DejaVuSans-69"/>
      <path d="M 41.109375 46.296875 
Q 39.59375 47.171875 37.8125 47.578125 
Q 36.03125 48 33.890625 48 
Q 26.265625 48 22.1875 43.046875 
Q 18.109375 38.09375 18.109375 28.8125 
L 18.109375 0 
L 9.078125 0 
L 9.078125 54.6875 
L 18.109375 54.6875 
L 18.109375 46.1875 
Q 20.953125 51.171875 25.484375 53.578125 
Q 30.03125 56 36.53125 56 
Q 37.453125 56 38.578125 55.875 
Q 39.703125 55.765625 41.0625 55.515625 
z
" id="DejaVuSans-114"/>
      <path d="M 30.609375 48.390625 
Q 23.390625 48.390625 19.1875 42.75 
Q 14.984375 37.109375 14.984375 27.296875 
Q 14.984375 17.484375 19.15625 11.84375 
Q 23.34375 6.203125 30.609375 6.203125 
Q 37.796875 6.203125 41.984375 11.859375 
Q 46.1875 17.53125 46.1875 27.296875 
Q 46.1875 37.015625 41.984375 42.703125 
Q 37.796875 48.390625 30.609375 48.390625 
z
M 30.609375 56 
Q 42.328125 56 49.015625 48.375 
Q 55.71875 40.765625 55.71875 27.296875 
Q 55.71875 13.875 49.015625 6.21875 
Q 42.328125 -1.421875 30.609375 -1.421875 
Q 18.84375 -1.421875 12.171875 6.21875 
Q 5.515625 13.875 5.515625 27.296875 
Q 5.515625 40.765625 12.171875 48.375 
Q 18.84375 56 30.609375 56 
z
" id="DejaVuSans-111"/>
      <path d="M 18.3125 70.21875 
L 18.3125 54.6875 
L 36.8125 54.6875 
L 36.8125 47.703125 
L 18.3125 47.703125 
L 18.3125 18.015625 
Q 18.3125 11.328125 20.140625 9.421875 
Q 21.96875 7.515625 27.59375 7.515625 
L 36.8125 7.515625 
L 36.8125 0 
L 27.59375 0 
Q 17.1875 0 13.234375 3.875 
Q 9.28125 7.765625 9.28125 18.015625 
L 9.28125 47.703125 
L 2.6875 47.703125 
L 2.6875 54.6875 
L 9.28125 54.6875 
L 9.28125 70.21875 
z
" id="DejaVuSans-116"/>
      <path d="M 54.890625 33.015625 
L 54.890625 0 
L 45.90625 0 
L 45.90625 32.71875 
Q 45.90625 40.484375 42.875 44.328125 
Q 39.84375 48.1875 33.796875 48.1875 
Q 26.515625 48.1875 22.3125 43.546875 
Q 18.109375 38.921875 18.109375 30.90625 
L 18.109375 0 
L 9.078125 0 
L 9.078125 75.984375 
L 18.109375 75.984375 
L 18.109375 46.1875 
Q 21.34375 51.125 25.703125 53.5625 
Q 30.078125 56 35.796875 56 
Q 45.21875 56 50.046875 50.171875 
Q 54.890625 44.34375 54.890625 33.015625 
z
" id="DejaVuSans-104"/>
      <path d="M 53.515625 70.515625 
L 53.515625 60.890625 
Q 47.90625 63.578125 42.921875 64.890625 
Q 37.9375 66.21875 33.296875 66.21875 
Q 25.25 66.21875 20.875 63.09375 
Q 16.5 59.96875 16.5 54.203125 
Q 16.5 49.359375 19.40625 46.890625 
Q 22.3125 44.4375 30.421875 42.921875 
L 36.375 41.703125 
Q 47.40625 39.59375 52.65625 34.296875 
Q 57.90625 29 57.90625 20.125 
Q 57.90625 9.515625 50.796875 4.046875 
Q 43.703125 -1.421875 29.984375 -1.421875 
Q 24.8125 -1.421875 18.96875 -0.25 
Q 13.140625 0.921875 6.890625 3.21875 
L 6.890625 13.375 
Q 12.890625 10.015625 18.65625 8.296875 
Q 24.421875 6.59375 29.984375 6.59375 
Q 38.421875 6.59375 43.015625 9.90625 
Q 47.609375 13.234375 47.609375 19.390625 
Q 47.609375 24.75 44.3125 27.78125 
Q 41.015625 30.8125 33.5 32.328125 
L 27.484375 33.5 
Q 16.453125 35.6875 11.515625 40.375 
Q 6.59375 45.0625 6.59375 53.421875 
Q 6.59375 63.09375 13.40625 68.65625 
Q 20.21875 74.21875 32.171875 74.21875 
Q 37.3125 74.21875 42.625 73.28125 
Q 47.953125 72.359375 53.515625 70.515625 
z
" id="DejaVuSans-83"/>
      <path d="M 34.28125 27.484375 
Q 23.390625 27.484375 19.1875 25 
Q 14.984375 22.515625 14.984375 16.5 
Q 14.984375 11.71875 18.140625 8.90625 
Q 21.296875 6.109375 26.703125 6.109375 
Q 34.1875 6.109375 38.703125 11.40625 
Q 43.21875 16.703125 43.21875 25.484375 
L 43.21875 27.484375 
z
M 52.203125 31.203125 
L 52.203125 0 
L 43.21875 0 
L 43.21875 8.296875 
Q 40.140625 3.328125 35.546875 0.953125 
Q 30.953125 -1.421875 24.3125 -1.421875 
Q 15.921875 -1.421875 10.953125 3.296875 
Q 6 8.015625 6 15.921875 
Q 6 25.140625 12.171875 29.828125 
Q 18.359375 34.515625 30.609375 34.515625 
L 43.21875 34.515625 
L 43.21875 35.40625 
Q 43.21875 41.609375 39.140625 45 
Q 35.0625 48.390625 27.6875 48.390625 
Q 23 48.390625 18.546875 47.265625 
Q 14.109375 46.140625 10.015625 43.890625 
L 10.015625 52.203125 
Q 14.9375 54.109375 19.578125 55.046875 
Q 24.21875 56 28.609375 56 
Q 40.484375 56 46.34375 49.84375 
Q 52.203125 43.703125 52.203125 31.203125 
z
" id="DejaVuSans-97"/>
      <path d="M 44.28125 53.078125 
L 44.28125 44.578125 
Q 40.484375 46.53125 36.375 47.5 
Q 32.28125 48.484375 27.875 48.484375 
Q 21.1875 48.484375 17.84375 46.4375 
Q 14.5 44.390625 14.5 40.28125 
Q 14.5 37.15625 16.890625 35.375 
Q 19.28125 33.59375 26.515625 31.984375 
L 29.59375 31.296875 
Q 39.15625 29.25 43.1875 25.515625 
Q 47.21875 21.78125 47.21875 15.09375 
Q 47.21875 7.46875 41.1875 3.015625 
Q 35.15625 -1.421875 24.609375 -1.421875 
Q 20.21875 -1.421875 15.453125 -0.5625 
Q 10.6875 0.296875 5.421875 2 
L 5.421875 11.28125 
Q 10.40625 8.6875 15.234375 7.390625 
Q 20.0625 6.109375 24.8125 6.109375 
Q 31.15625 6.109375 34.5625 8.28125 
Q 37.984375 10.453125 37.984375 14.40625 
Q 37.984375 18.0625 35.515625 20.015625 
Q 33.0625 21.96875 24.703125 23.78125 
L 21.578125 24.515625 
Q 13.234375 26.265625 9.515625 29.90625 
Q 5.8125 33.546875 5.8125 39.890625 
Q 5.8125 47.609375 11.28125 51.796875 
Q 16.75 56 26.8125 56 
Q 31.78125 56 36.171875 55.265625 
Q 40.578125 54.546875 44.28125 53.078125 
z
" id="DejaVuSans-115"/>
      <path d="M 9.8125 72.90625 
L 24.515625 72.90625 
L 43.109375 23.296875 
L 61.8125 72.90625 
L 76.515625 72.90625 
L 76.515625 0 
L 66.890625 0 
L 66.890625 64.015625 
L 48.09375 14.015625 
L 38.1875 14.015625 
L 19.390625 64.015625 
L 19.390625 0 
L 9.8125 0 
z
" id="DejaVuSans-77"/>
      <path d="M 3.328125 72.90625 
L 13.28125 72.90625 
L 28.609375 11.28125 
L 43.890625 72.90625 
L 54.984375 72.90625 
L 70.3125 11.28125 
L 85.59375 72.90625 
L 95.609375 72.90625 
L 77.296875 0 
L 64.890625 0 
L 49.515625 63.28125 
L 33.984375 0 
L 21.578125 0 
z
" id="DejaVuSans-87"/>
     </defs>
     <g transform="translate(14.798438 282.530312)rotate(-90)scale(0.1 -0.1)">
      <use xlink:href="#DejaVuSans-69"/>
      <use x="63.183594" xlink:href="#DejaVuSans-114"/>
      <use x="104.28125" xlink:href="#DejaVuSans-114"/>
      <use x="145.363281" xlink:href="#DejaVuSans-111"/>
      <use x="206.544922" xlink:href="#DejaVuSans-114"/>
      <use x="247.658203" xlink:href="#DejaVuSans-32"/>
      <use x="279.445312" xlink:href="#DejaVuSans-105"/>
      <use x="307.228516" xlink:href="#DejaVuSans-110"/>
      <use x="370.607422" xlink:href="#DejaVuSans-32"/>
      <use x="402.394531" xlink:href="#DejaVuSans-116"/>
      <use x="441.603516" xlink:href="#DejaVuSans-104"/>
      <use x="504.982422" xlink:href="#DejaVuSans-101"/>
      <use x="566.505859" xlink:href="#DejaVuSans-32"/>
      <use x="598.292969" xlink:href="#DejaVuSans-83"/>
      <use x="661.769531" xlink:href="#DejaVuSans-116"/>
      <use x="700.978516" xlink:href="#DejaVuSans-97"/>
      <use x="762.257812" xlink:href="#DejaVuSans-116"/>
      <use x="801.466797" xlink:href="#DejaVuSans-101"/>
      <use x="862.990234" xlink:href="#DejaVuSans-32"/>
      <use x="894.777344" xlink:href="#DejaVuSans-69"/>
      <use x="957.960938" xlink:href="#DejaVuSans-115"/>
      <use x="1010.060547" xlink:href="#DejaVuSans-116"/>
      <use x="1049.269531" xlink:href="#DejaVuSans-105"/>
      <use x="1077.052734" xlink:href="#DejaVuSans-97"/>
      <use x="1138.332031" xlink:href="#DejaVuSans-109"/>
      <use x="1235.744141" xlink:href="#DejaVuSans-116"/>
      <use x="1274.953125" xlink:href="#DejaVuSans-101"/>
      <use x="1336.476562" xlink:href="#DejaVuSans-32"/>
      <use x="1368.263672" xlink:href="#DejaVuSans-91"/>
      <use x="1407.277344" xlink:href="#DejaVuSans-77"/>
      <use x="1493.556641" xlink:href="#DejaVuSans-87"/>
      <use x="1592.433594" xlink:href="#DejaVuSans-93"/>
     </g>
    </g>
   </g>
   <g id="patch_3">
    <path d="M 46.965625 391.22 
L 46.965625 10.7 
" style="fill:none;stroke:#000000;stroke-linecap:square;stroke-linejoin:miter;stroke-width:0.8;"/>
   </g>
   <g id="patch_4">
    <path d="M 604.965625 391.22 
L 604.965625 10.7 
" style="fill:none;stroke:#000000;stroke-linecap:square;stroke-linejoin:miter;stroke-width:0.8;"/>
   </g>
   <g id="patch_5">
    <path d="M 46.965625 391.22 
L 604.965625 391.22 
" style="fill:none;stroke:#000000;stroke-linecap:square;stroke-linejoin:miter;stroke-width:0.8;"/>
   </g>
   <g id="patch_6">
    <path d="M 46.965625 10.7 
L 604.965625 10.7 
" style="fill:none;stroke:#000000;stroke-linecap:square;stroke-linejoin:miter;stroke-width:0.8;"/>
   </g>
   <g id="legend_1">
    <g id="patch_7">
     <path d="M 53.965625 48.05625 
L 198.528125 48.05625 
Q 200.528125 48.05625 200.528125 46.05625 
L 200.528125 17.7 
Q 200.528125 15.7 198.528125 15.7 
L 53.965625 15.7 
Q 51.965625 15.7 51.965625 17.7 
L 51.965625 46.05625 
Q 51.965625 48.05625 53.965625 48.05625 
z
" style="fill:#ffffff;opacity:0.8;stroke:#cccccc;stroke-linejoin:miter;"/>
    </g>
    <g id="PathCollection_3">
     <g>
      <use style="fill:#1f77b4;stroke:#1f77b4;" x="65.965625" xlink:href="#m0f3dde0093" y="24.673437"/>
     </g>
    </g>
    <g id="text_18">
     <!-- Error at Converter Bus -->
     <defs>
      <path d="M 64.40625 67.28125 
L 64.40625 56.890625 
Q 59.421875 61.53125 53.78125 63.8125 
Q 48.140625 66.109375 41.796875 66.109375 
Q 29.296875 66.109375 22.65625 58.46875 
Q 16.015625 50.828125 16.015625 36.375 
Q 16.015625 21.96875 22.65625 14.328125 
Q 29.296875 6.6875 41.796875 6.6875 
Q 48.140625 6.6875 53.78125 8.984375 
Q 59.421875 11.28125 64.40625 15.921875 
L 64.40625 5.609375 
Q 59.234375 2.09375 53.4375 0.328125 
Q 47.65625 -1.421875 41.21875 -1.421875 
Q 24.65625 -1.421875 15.125 8.703125 
Q 5.609375 18.84375 5.609375 36.375 
Q 5.609375 53.953125 15.125 64.078125 
Q 24.65625 74.21875 41.21875 74.21875 
Q 47.75 74.21875 53.53125 72.484375 
Q 59.328125 70.75 64.40625 67.28125 
z
" id="DejaVuSans-67"/>
      <path d="M 2.984375 54.6875 
L 12.5 54.6875 
L 29.59375 8.796875 
L 46.6875 54.6875 
L 56.203125 54.6875 
L 35.6875 0 
L 23.484375 0 
z
" id="DejaVuSans-118"/>
      <path d="M 19.671875 34.8125 
L 19.671875 8.109375 
L 35.5 8.109375 
Q 43.453125 8.109375 47.28125 11.40625 
Q 51.125 14.703125 51.125 21.484375 
Q 51.125 28.328125 47.28125 31.5625 
Q 43.453125 34.8125 35.5 34.8125 
z
M 19.671875 64.796875 
L 19.671875 42.828125 
L 34.28125 42.828125 
Q 41.5 42.828125 45.03125 45.53125 
Q 48.578125 48.25 48.578125 53.8125 
Q 48.578125 59.328125 45.03125 62.0625 
Q 41.5 64.796875 34.28125 64.796875 
z
M 9.8125 72.90625 
L 35.015625 72.90625 
Q 46.296875 72.90625 52.390625 68.21875 
Q 58.5 63.53125 58.5 54.890625 
Q 58.5 48.1875 55.375 44.234375 
Q 52.25 40.28125 46.1875 39.3125 
Q 53.46875 37.75 57.5 32.78125 
Q 61.53125 27.828125 61.53125 20.40625 
Q 61.53125 10.640625 54.890625 5.3125 
Q 48.25 0 35.984375 0 
L 9.8125 0 
z
" id="DejaVuSans-66"/>
      <path d="M 8.5 21.578125 
L 8.5 54.6875 
L 17.484375 54.6875 
L 17.484375 21.921875 
Q 17.484375 14.15625 20.5 10.265625 
Q 23.53125 6.390625 29.59375 6.390625 
Q 36.859375 6.390625 41.078125 11.03125 
Q 45.3125 15.671875 45.3125 23.6875 
L 45.3125 54.6875 
L 54.296875 54.6875 
L 54.296875 0 
L 45.3125 0 
L 45.3125 8.40625 
Q 42.046875 3.421875 37.71875 1 
Q 33.40625 -1.421875 27.6875 -1.421875 
Q 18.265625 -1.421875 13.375 4.4375 
Q 8.5 10.296875 8.5 21.578125 
z
M 31.109375 56 
z
" id="DejaVuSans-117"/>
     </defs>
     <g transform="translate(83.965625 27.298437)scale(0.1 -0.1)">
      <use xlink:href="#DejaVuSans-69"/>
      <use x="63.183594" xlink:href="#DejaVuSans-114"/>
      <use x="104.28125" xlink:href="#DejaVuSans-114"/>
      <use x="145.363281" xlink:href="#DejaVuSans-111"/>
      <use x="206.544922" xlink:href="#DejaVuSans-114"/>
      <use x="247.658203" xlink:href="#DejaVuSans-32"/>
      <use x="279.445312" xlink:href="#DejaVuSans-97"/>
      <use x="340.724609" xlink:href="#DejaVuSans-116"/>
      <use x="379.933594" xlink:href="#DejaVuSans-32"/>
      <use x="411.720703" xlink:href="#DejaVuSans-67"/>
      <use x="481.544922" xlink:href="#DejaVuSans-111"/>
      <use x="542.726562" xlink:href="#DejaVuSans-110"/>
      <use x="606.105469" xlink:href="#DejaVuSans-118"/>
      <use x="665.285156" xlink:href="#DejaVuSans-101"/>
      <use x="726.808594" xlink:href="#DejaVuSans-114"/>
      <use x="767.921875" xlink:href="#DejaVuSans-116"/>
      <use x="807.130859" xlink:href="#DejaVuSans-101"/>
      <use x="868.654297" xlink:href="#DejaVuSans-114"/>
      <use x="909.767578" xlink:href="#DejaVuSans-32"/>
      <use x="941.554688" xlink:href="#DejaVuSans-66"/>
      <use x="1010.158203" xlink:href="#DejaVuSans-117"/>
      <use x="1073.537109" xlink:href="#DejaVuSans-115"/>
     </g>
    </g>
    <g id="PathCollection_4">
     <g>
      <use style="fill:#ff7f0e;stroke:#ff7f0e;" x="65.965625" xlink:href="#mfdf2039d7d" y="39.351562"/>
     </g>
    </g>
    <g id="text_19">
     <!-- Error at Inverter Bus -->
     <defs>
      <path d="M 9.8125 72.90625 
L 19.671875 72.90625 
L 19.671875 0 
L 9.8125 0 
z
" id="DejaVuSans-73"/>
     </defs>
     <g transform="translate(83.965625 41.976562)scale(0.1 -0.1)">
      <use xlink:href="#DejaVuSans-69"/>
      <use x="63.183594" xlink:href="#DejaVuSans-114"/>
      <use x="104.28125" xlink:href="#DejaVuSans-114"/>
      <use x="145.363281" xlink:href="#DejaVuSans-111"/>
      <use x="206.544922" xlink:href="#DejaVuSans-114"/>
      <use x="247.658203" xlink:href="#DejaVuSans-32"/>
      <use x="279.445312" xlink:href="#DejaVuSans-97"/>
      <use x="340.724609" xlink:href="#DejaVuSans-116"/>
      <use x="379.933594" xlink:href="#DejaVuSans-32"/>
      <use x="411.720703" xlink:href="#DejaVuSans-73"/>
      <use x="441.212891" xlink:href="#DejaVuSans-110"/>
      <use x="504.591797" xlink:href="#DejaVuSans-118"/>
      <use x="563.771484" xlink:href="#DejaVuSans-101"/>
      <use x="625.294922" xlink:href="#DejaVuSans-114"/>
      <use x="666.408203" xlink:href="#DejaVuSans-116"/>
      <use x="705.617188" xlink:href="#DejaVuSans-101"/>
      <use x="767.140625" xlink:href="#DejaVuSans-114"/>
      <use x="808.253906" xlink:href="#DejaVuSans-32"/>
      <use x="840.041016" xlink:href="#DejaVuSans-66"/>
      <use x="908.644531" xlink:href="#DejaVuSans-117"/>
      <use x="972.023438" xlink:href="#DejaVuSans-115"/>
     </g>
    </g>
   </g>
  </g>
 </g>
 <defs>
  <clipPath id="pf75b3dc252">
   <rect height="380.52" width="558" x="46.965625" y="10.7"/>
  </clipPath>
 </defs>
</svg>
